<mxfile host="app.diagrams.net" modified="2021-01-07T04:18:06.266Z" agent="5.0 (Macintosh; Intel Mac OS X 10_14_5) AppleWebKit/537.36 (KHTML, like Gecko) Chrome/87.0.4280.88 Safari/537.36" etag="LgpZqEml1xsmyiBCCeyR" version="14.0.1" type="github" pages="9">
  <diagram id="T-0TTRabOmarUsiCqBks" name="Page-1">
    <mxGraphModel dx="1876" dy="1071" grid="1" gridSize="10" guides="1" tooltips="1" connect="1" arrows="1" fold="1" page="1" pageScale="1" pageWidth="827" pageHeight="1169" math="0" shadow="0">
      <root>
        <mxCell id="0" />
        <mxCell id="1" parent="0" />
        <mxCell id="knxrKgOrFJBOttm7FoQy-13" value="" style="edgeStyle=orthogonalEdgeStyle;rounded=0;orthogonalLoop=1;jettySize=auto;html=1;" parent="1" source="knxrKgOrFJBOttm7FoQy-11" target="knxrKgOrFJBOttm7FoQy-12" edge="1">
          <mxGeometry relative="1" as="geometry">
            <Array as="points">
              <mxPoint x="180" y="60" />
              <mxPoint x="180" y="60" />
            </Array>
          </mxGeometry>
        </mxCell>
        <mxCell id="knxrKgOrFJBOttm7FoQy-11" value="&lt;span style=&quot;color: rgb(51 , 51 , 51) ; font-family: &amp;#34;vollkorn&amp;#34; , &amp;#34;palatino&amp;#34; , &amp;#34;times&amp;#34; ; font-size: 19px ; text-align: justify ; background-color: rgb(255 , 255 , 255)&quot;&gt;render&lt;/span&gt;" style="rounded=0;whiteSpace=wrap;html=1;" parent="1" vertex="1">
          <mxGeometry x="120" y="10" width="120" height="40" as="geometry" />
        </mxCell>
        <mxCell id="knxrKgOrFJBOttm7FoQy-15" value="" style="edgeStyle=orthogonalEdgeStyle;rounded=0;orthogonalLoop=1;jettySize=auto;html=1;entryX=0.5;entryY=0;entryDx=0;entryDy=0;" parent="1" source="knxrKgOrFJBOttm7FoQy-12" target="knxrKgOrFJBOttm7FoQy-20" edge="1">
          <mxGeometry relative="1" as="geometry">
            <Array as="points">
              <mxPoint x="180" y="170" />
              <mxPoint x="180" y="170" />
            </Array>
            <mxPoint x="130" y="170" as="targetPoint" />
          </mxGeometry>
        </mxCell>
        <mxCell id="hX8fILmPGgHoR9EGwCuq-1" style="edgeStyle=none;rounded=0;orthogonalLoop=1;jettySize=auto;html=1;entryX=0.5;entryY=0;entryDx=0;entryDy=0;strokeWidth=1;fontSize=16;fontColor=#6666FF;exitX=1;exitY=0.436;exitDx=0;exitDy=0;exitPerimeter=0;" edge="1" parent="1" source="knxrKgOrFJBOttm7FoQy-12" target="knxrKgOrFJBOttm7FoQy-25">
          <mxGeometry relative="1" as="geometry">
            <Array as="points">
              <mxPoint x="571" y="106" />
            </Array>
          </mxGeometry>
        </mxCell>
        <mxCell id="knxrKgOrFJBOttm7FoQy-12" value="&lt;span style=&quot;color: rgb(51 , 51 , 51) ; font-family: &amp;#34;vollkorn&amp;#34; , &amp;#34;palatino&amp;#34; , &amp;#34;times&amp;#34; ; font-size: 19px ; text-align: justify ; background-color: rgb(255 , 242 , 204)&quot;&gt;legacyRenderSubtreeIntoContainer&lt;/span&gt;" style="whiteSpace=wrap;html=1;rounded=0;fillColor=#fff2cc;strokeColor=#d6b656;" parent="1" vertex="1">
          <mxGeometry x="70" y="80" width="310" height="60" as="geometry" />
        </mxCell>
        <mxCell id="tFmDYBe74tG5leE996ub-2" style="edgeStyle=none;rounded=0;orthogonalLoop=1;jettySize=auto;html=1;strokeWidth=1;fontSize=16;fontColor=#6666FF;exitX=0.5;exitY=1;exitDx=0;exitDy=0;entryX=0.5;entryY=0;entryDx=0;entryDy=0;" edge="1" parent="1" source="knxrKgOrFJBOttm7FoQy-20" target="knxrKgOrFJBOttm7FoQy-22">
          <mxGeometry relative="1" as="geometry">
            <mxPoint x="170" y="300" as="sourcePoint" />
            <mxPoint x="174" y="370" as="targetPoint" />
            <Array as="points" />
          </mxGeometry>
        </mxCell>
        <mxCell id="knxrKgOrFJBOttm7FoQy-20" value="&lt;span style=&quot;color: rgb(51 , 51 , 51) ; font-family: &amp;#34;vollkorn&amp;#34; , &amp;#34;palatino&amp;#34; , &amp;#34;times&amp;#34; ; font-size: 19px ; font-style: normal ; font-weight: normal ; letter-spacing: normal ; text-align: justify ; text-indent: 0px ; text-transform: none ; word-spacing: 0px ; text-decoration: none ; display: inline ; float: none ; background-color: rgb(255 , 242 , 204)&quot;&gt;createRootImpl&lt;/span&gt;" style="whiteSpace=wrap;html=1;rounded=0;fillColor=#fff2cc;strokeColor=#d6b656;" parent="1" vertex="1">
          <mxGeometry x="111.87" y="180" width="136.25" height="60" as="geometry" />
        </mxCell>
        <mxCell id="pNXK3rBJTafSsgdG6akQ-2" value="" style="edgeStyle=orthogonalEdgeStyle;rounded=0;orthogonalLoop=1;jettySize=auto;html=1;entryX=0.5;entryY=0;entryDx=0;entryDy=0;" edge="1" parent="1" source="knxrKgOrFJBOttm7FoQy-22" target="pNXK3rBJTafSsgdG6akQ-1">
          <mxGeometry relative="1" as="geometry">
            <mxPoint x="118.35756000000038" y="410" as="sourcePoint" />
            <Array as="points">
              <mxPoint x="178" y="380" />
              <mxPoint x="178" y="380" />
            </Array>
          </mxGeometry>
        </mxCell>
        <mxCell id="knxrKgOrFJBOttm7FoQy-22" value="&lt;span style=&quot;color: rgb(51 , 51 , 51) ; font-family: &amp;#34;vollkorn&amp;#34; , &amp;#34;palatino&amp;#34; , &amp;#34;times&amp;#34; ; font-size: 19px ; text-align: justify ; background-color: rgb(255 , 242 , 204)&quot;&gt;createFiberRoot&lt;/span&gt;" style="whiteSpace=wrap;html=1;rounded=0;fillColor=#fff2cc;strokeColor=#d6b656;" parent="1" vertex="1">
          <mxGeometry x="99.06" y="280" width="161.88" height="60" as="geometry" />
        </mxCell>
        <mxCell id="knxrKgOrFJBOttm7FoQy-28" value="" style="edgeStyle=orthogonalEdgeStyle;rounded=0;orthogonalLoop=1;jettySize=auto;html=1;" parent="1" source="knxrKgOrFJBOttm7FoQy-25" target="knxrKgOrFJBOttm7FoQy-27" edge="1">
          <mxGeometry relative="1" as="geometry">
            <Array as="points">
              <mxPoint x="640" y="340" />
            </Array>
          </mxGeometry>
        </mxCell>
        <mxCell id="knxrKgOrFJBOttm7FoQy-33" value="" style="edgeStyle=orthogonalEdgeStyle;rounded=0;orthogonalLoop=1;jettySize=auto;html=1;" parent="1" source="knxrKgOrFJBOttm7FoQy-25" target="knxrKgOrFJBOttm7FoQy-32" edge="1">
          <mxGeometry relative="1" as="geometry">
            <Array as="points">
              <mxPoint x="540" y="420" />
            </Array>
          </mxGeometry>
        </mxCell>
        <mxCell id="hX8fILmPGgHoR9EGwCuq-4" style="edgeStyle=none;rounded=0;orthogonalLoop=1;jettySize=auto;html=1;entryX=0;entryY=0.5;entryDx=0;entryDy=0;strokeWidth=1;fontSize=16;fontColor=#6666FF;" edge="1" parent="1" source="knxrKgOrFJBOttm7FoQy-25" target="hX8fILmPGgHoR9EGwCuq-3">
          <mxGeometry relative="1" as="geometry" />
        </mxCell>
        <mxCell id="knxrKgOrFJBOttm7FoQy-25" value="&lt;span style=&quot;color: rgb(51 , 51 , 51) ; font-family: &amp;#34;vollkorn&amp;#34; , &amp;#34;palatino&amp;#34; , &amp;#34;times&amp;#34; ; font-size: 19px ; font-style: normal ; font-weight: normal ; letter-spacing: normal ; text-align: justify ; text-indent: 0px ; text-transform: none ; word-spacing: 0px ; text-decoration: none ; display: inline ; float: none ; background-color: rgb(248 , 206 , 204)&quot;&gt;updateContainer&lt;/span&gt;" style="whiteSpace=wrap;html=1;rounded=0;fillColor=#f8cecc;strokeColor=#b85450;" parent="1" vertex="1">
          <mxGeometry x="490" y="250" width="162.5" height="60" as="geometry" />
        </mxCell>
        <mxCell id="knxrKgOrFJBOttm7FoQy-27" value="&lt;span style=&quot;color: rgb(51 , 51 , 51) ; font-family: &amp;#34;vollkorn&amp;#34; , &amp;#34;palatino&amp;#34; , &amp;#34;times&amp;#34; ; font-size: 19px ; text-align: justify ; background-color: rgb(248 , 206 , 204)&quot;&gt;enqueueUpdate&lt;/span&gt;" style="whiteSpace=wrap;html=1;rounded=0;fillColor=#f8cecc;strokeColor=#b85450;" parent="1" vertex="1">
          <mxGeometry x="750" y="320" width="150" height="60" as="geometry" />
        </mxCell>
        <mxCell id="knxrKgOrFJBOttm7FoQy-36" value="" style="edgeStyle=orthogonalEdgeStyle;rounded=0;orthogonalLoop=1;jettySize=auto;html=1;" parent="1" source="knxrKgOrFJBOttm7FoQy-30" target="knxrKgOrFJBOttm7FoQy-35" edge="1">
          <mxGeometry relative="1" as="geometry" />
        </mxCell>
        <mxCell id="tFmDYBe74tG5leE996ub-5" style="edgeStyle=none;rounded=0;orthogonalLoop=1;jettySize=auto;html=1;strokeWidth=1;fontSize=16;fontColor=#6666FF;entryX=1;entryY=0.5;entryDx=0;entryDy=0;" edge="1" parent="1" source="knxrKgOrFJBOttm7FoQy-30" target="knxrKgOrFJBOttm7FoQy-20">
          <mxGeometry relative="1" as="geometry">
            <mxPoint x="560.94" y="40" as="targetPoint" />
            <Array as="points">
              <mxPoint x="480" y="210" />
            </Array>
          </mxGeometry>
        </mxCell>
        <mxCell id="knxrKgOrFJBOttm7FoQy-30" value="&lt;span style=&quot;color: rgb(51 , 51 , 51) ; font-family: &amp;#34;vollkorn&amp;#34; , &amp;#34;palatino&amp;#34; , &amp;#34;times&amp;#34; ; font-size: 19px ; text-align: justify ; background-color: rgb(255 , 255 , 255)&quot;&gt;createRoot&lt;/span&gt;" style="rounded=0;whiteSpace=wrap;html=1;" parent="1" vertex="1">
          <mxGeometry x="420" y="20" width="120" height="40" as="geometry" />
        </mxCell>
        <mxCell id="eJVErmZc-hzEECCzXBHc-2" style="edgeStyle=none;rounded=0;orthogonalLoop=1;jettySize=auto;html=1;exitX=0.5;exitY=1;exitDx=0;exitDy=0;strokeWidth=1;fontSize=16;fontColor=#6666FF;entryX=0.5;entryY=0;entryDx=0;entryDy=0;" edge="1" parent="1" source="knxrKgOrFJBOttm7FoQy-32" target="TcT8CJEbj1Qw_7qe_aiY-4">
          <mxGeometry relative="1" as="geometry">
            <mxPoint x="550" y="520" as="targetPoint" />
          </mxGeometry>
        </mxCell>
        <mxCell id="knxrKgOrFJBOttm7FoQy-32" value="&lt;span style=&quot;font-family: &amp;#34;vollkorn&amp;#34; , &amp;#34;palatino&amp;#34; , &amp;#34;times&amp;#34; ; font-size: 19px ; text-align: justify ; background-color: rgb(213 , 232 , 212)&quot;&gt;&lt;font color=&quot;#330000&quot;&gt;scheduleUpdateOnFiber&lt;/font&gt;&lt;/span&gt;" style="whiteSpace=wrap;html=1;rounded=0;fillColor=#d5e8d4;strokeColor=#82b366;" parent="1" vertex="1">
          <mxGeometry x="440" y="420" width="220" height="60" as="geometry" />
        </mxCell>
        <mxCell id="knxrKgOrFJBOttm7FoQy-37" style="edgeStyle=orthogonalEdgeStyle;rounded=0;orthogonalLoop=1;jettySize=auto;html=1;exitX=0.5;exitY=1;exitDx=0;exitDy=0;entryX=0.75;entryY=0;entryDx=0;entryDy=0;" parent="1" source="knxrKgOrFJBOttm7FoQy-35" target="knxrKgOrFJBOttm7FoQy-25" edge="1">
          <mxGeometry relative="1" as="geometry">
            <Array as="points">
              <mxPoint x="612" y="60" />
            </Array>
          </mxGeometry>
        </mxCell>
        <mxCell id="knxrKgOrFJBOttm7FoQy-35" value="&lt;span style=&quot;color: rgb(51 , 51 , 51) ; font-family: &amp;#34;vollkorn&amp;#34; , &amp;#34;palatino&amp;#34; , &amp;#34;times&amp;#34; ; font-size: 19px ; text-align: justify ; background-color: rgb(255 , 255 , 255)&quot;&gt;ReactDOMRoot.prototype.render&lt;/span&gt;" style="whiteSpace=wrap;html=1;rounded=0;" parent="1" vertex="1">
          <mxGeometry x="580" y="10" width="290" height="60" as="geometry" />
        </mxCell>
        <mxCell id="zcelUr1XZiUG5QZzuq9t-1" value="&lt;font style=&quot;font-size: 16px&quot;&gt;performSyncWorkOnRoot&lt;/font&gt;" style="whiteSpace=wrap;html=1;rounded=0;fillColor=#d5e8d4;strokeColor=#82b366;" vertex="1" parent="1">
          <mxGeometry x="220" y="530" width="190" height="60" as="geometry" />
        </mxCell>
        <mxCell id="TcT8CJEbj1Qw_7qe_aiY-27" style="edgeStyle=none;rounded=0;orthogonalLoop=1;jettySize=auto;html=1;entryX=0.5;entryY=0;entryDx=0;entryDy=0;strokeWidth=1;fontSize=16;fontColor=#6666FF;" edge="1" parent="1" source="zcelUr1XZiUG5QZzuq9t-3" target="TcT8CJEbj1Qw_7qe_aiY-25">
          <mxGeometry relative="1" as="geometry" />
        </mxCell>
        <mxCell id="zcelUr1XZiUG5QZzuq9t-3" value="&lt;font style=&quot;font-size: 16px&quot;&gt;ensureRootIsScheduled&lt;/font&gt;" style="whiteSpace=wrap;html=1;rounded=0;fillColor=#d5e8d4;strokeColor=#82b366;" vertex="1" parent="1">
          <mxGeometry x="670" y="530" width="190" height="60" as="geometry" />
        </mxCell>
        <mxCell id="zcelUr1XZiUG5QZzuq9t-5" value="&lt;font style=&quot;font-size: 16px&quot;&gt;scheduleCallback(schedulerPriorityLevel,performConcurrentWorkOnRoot.bind(null, root));&lt;/font&gt;" style="whiteSpace=wrap;html=1;rounded=0;fillColor=#d5e8d4;strokeColor=#82b366;" vertex="1" parent="1">
          <mxGeometry x="420" y="810" width="660" height="60" as="geometry" />
        </mxCell>
        <mxCell id="pNXK3rBJTafSsgdG6akQ-1" value="&lt;font style=&quot;font-size: 16px&quot;&gt;createHostRootFiber&lt;/font&gt;" style="whiteSpace=wrap;html=1;rounded=0;fillColor=#fff2cc;strokeColor=#d6b656;" vertex="1" parent="1">
          <mxGeometry x="94.38" y="390" width="166.56" height="60" as="geometry" />
        </mxCell>
        <mxCell id="hX8fILmPGgHoR9EGwCuq-3" value="&lt;font color=&quot;#330000&quot;&gt;createUpdate&lt;/font&gt;" style="rounded=0;whiteSpace=wrap;html=1;strokeWidth=1;fontSize=16;fillColor=#f8cecc;strokeColor=#b85450;" vertex="1" parent="1">
          <mxGeometry x="750" y="250" width="120" height="60" as="geometry" />
        </mxCell>
        <mxCell id="eJVErmZc-hzEECCzXBHc-5" value="&lt;font color=&quot;#330000&quot; style=&quot;background-color: rgb(255 , 242 , 204)&quot;&gt;创建&lt;span style=&quot;font-family: &amp;#34;vollkorn&amp;#34; , &amp;#34;palatino&amp;#34; , &amp;#34;times&amp;#34; ; font-size: 19px ; text-align: justify&quot;&gt;fiberRootNode和&lt;/span&gt;&lt;span style=&quot;font-family: &amp;#34;vollkorn&amp;#34; , &amp;#34;palatino&amp;#34; , &amp;#34;times&amp;#34; ; font-size: 19px ; text-align: justify&quot;&gt;rootFiber&lt;/span&gt;&lt;/font&gt;" style="rounded=0;whiteSpace=wrap;html=1;strokeWidth=1;fontSize=16;fillColor=#fff2cc;strokeColor=#d6b656;" vertex="1" parent="1">
          <mxGeometry x="990" y="30" width="290" height="60" as="geometry" />
        </mxCell>
        <mxCell id="eJVErmZc-hzEECCzXBHc-6" value="创建Update" style="rounded=0;whiteSpace=wrap;html=1;strokeWidth=1;fontSize=16;fillColor=#f8cecc;strokeColor=#b85450;" vertex="1" parent="1">
          <mxGeometry x="990" y="110" width="290" height="60" as="geometry" />
        </mxCell>
        <mxCell id="eJVErmZc-hzEECCzXBHc-10" value="&lt;span style=&quot;font-size: 16px&quot;&gt;执行或者调度render阶段入口函数&lt;/span&gt;" style="whiteSpace=wrap;html=1;rounded=0;fillColor=#d5e8d4;strokeColor=#82b366;" vertex="1" parent="1">
          <mxGeometry x="990" y="190" width="290" height="60" as="geometry" />
        </mxCell>
        <mxCell id="TcT8CJEbj1Qw_7qe_aiY-1" value="&lt;font style=&quot;font-size: 16px&quot;&gt;scheduleSyncCallback(performSyncWorkOnRoot.bind(null, root));&lt;/font&gt;" style="whiteSpace=wrap;html=1;rounded=0;fillColor=#d5e8d4;strokeColor=#82b366;" vertex="1" parent="1">
          <mxGeometry x="930" y="690" width="480" height="60" as="geometry" />
        </mxCell>
        <mxCell id="TcT8CJEbj1Qw_7qe_aiY-5" style="edgeStyle=none;rounded=0;orthogonalLoop=1;jettySize=auto;html=1;strokeWidth=1;fontSize=16;fontColor=#6666FF;" edge="1" parent="1" source="TcT8CJEbj1Qw_7qe_aiY-4" target="zcelUr1XZiUG5QZzuq9t-1">
          <mxGeometry relative="1" as="geometry" />
        </mxCell>
        <mxCell id="TcT8CJEbj1Qw_7qe_aiY-7" style="edgeStyle=none;rounded=0;orthogonalLoop=1;jettySize=auto;html=1;entryX=0;entryY=0.5;entryDx=0;entryDy=0;strokeWidth=1;fontSize=16;fontColor=#6666FF;" edge="1" parent="1" source="TcT8CJEbj1Qw_7qe_aiY-4" target="zcelUr1XZiUG5QZzuq9t-3">
          <mxGeometry relative="1" as="geometry" />
        </mxCell>
        <mxCell id="TcT8CJEbj1Qw_7qe_aiY-4" value="lane===SyncLane" style="rhombus;whiteSpace=wrap;html=1;strokeWidth=1;fillColor=#f5f5f5;fontSize=16;fontColor=#333333;strokeColor=#666666;" vertex="1" parent="1">
          <mxGeometry x="470" y="520" width="160" height="80" as="geometry" />
        </mxCell>
        <mxCell id="TcT8CJEbj1Qw_7qe_aiY-20" value="newCallbackPriority === SyncLanePriority" style="text;html=1;align=center;verticalAlign=middle;resizable=0;points=[];autosize=1;fontSize=16;fontColor=#6666FF;" vertex="1" parent="1">
          <mxGeometry x="930" y="670" width="310" height="20" as="geometry" />
        </mxCell>
        <mxCell id="TcT8CJEbj1Qw_7qe_aiY-21" value="&lt;font style=&quot;font-size: 16px&quot;&gt;scheduleCallback(ImmediatePriority$1, performSyncWorkOnRoot.bind(null, root));&lt;/font&gt;" style="whiteSpace=wrap;html=1;rounded=0;fillColor=#d5e8d4;strokeColor=#82b366;" vertex="1" parent="1">
          <mxGeometry x="30" y="690" width="600" height="60" as="geometry" />
        </mxCell>
        <mxCell id="TcT8CJEbj1Qw_7qe_aiY-23" value="newCallbackPriority === SyncBatchedLanePriority" style="text;html=1;align=center;verticalAlign=middle;resizable=0;points=[];autosize=1;fontSize=16;fontColor=#6666FF;" vertex="1" parent="1">
          <mxGeometry x="30" y="670" width="370" height="20" as="geometry" />
        </mxCell>
        <mxCell id="TcT8CJEbj1Qw_7qe_aiY-28" style="edgeStyle=none;rounded=0;orthogonalLoop=1;jettySize=auto;html=1;entryX=0;entryY=0.5;entryDx=0;entryDy=0;strokeWidth=1;fontSize=16;fontColor=#6666FF;" edge="1" parent="1" source="TcT8CJEbj1Qw_7qe_aiY-25" target="TcT8CJEbj1Qw_7qe_aiY-1">
          <mxGeometry relative="1" as="geometry" />
        </mxCell>
        <mxCell id="TcT8CJEbj1Qw_7qe_aiY-29" style="edgeStyle=none;rounded=0;orthogonalLoop=1;jettySize=auto;html=1;strokeWidth=1;fontSize=16;fontColor=#6666FF;" edge="1" parent="1" source="TcT8CJEbj1Qw_7qe_aiY-25" target="TcT8CJEbj1Qw_7qe_aiY-21">
          <mxGeometry relative="1" as="geometry" />
        </mxCell>
        <mxCell id="TcT8CJEbj1Qw_7qe_aiY-30" style="edgeStyle=none;rounded=0;orthogonalLoop=1;jettySize=auto;html=1;entryX=0.529;entryY=-0.05;entryDx=0;entryDy=0;entryPerimeter=0;strokeWidth=1;fontSize=16;fontColor=#6666FF;" edge="1" parent="1" source="TcT8CJEbj1Qw_7qe_aiY-25" target="zcelUr1XZiUG5QZzuq9t-5">
          <mxGeometry relative="1" as="geometry" />
        </mxCell>
        <mxCell id="TcT8CJEbj1Qw_7qe_aiY-25" value="&lt;font color=&quot;#330000&quot;&gt;newCallbackPriority&lt;/font&gt;" style="rhombus;whiteSpace=wrap;html=1;strokeWidth=1;fillColor=#f5f5f5;fontSize=16;fontColor=#333333;strokeColor=#666666;" vertex="1" parent="1">
          <mxGeometry x="675" y="680" width="185" height="80" as="geometry" />
        </mxCell>
        <mxCell id="c7FZb4y9PuiQlEyLDrDT-1" value="&lt;span style=&quot;color: rgb(102 , 102 , 255) ; font-family: &amp;#34;helvetica&amp;#34; ; font-size: 16px ; font-style: normal ; font-weight: 400 ; letter-spacing: normal ; text-align: center ; text-indent: 0px ; text-transform: none ; word-spacing: 0px ; background-color: rgb(248 , 249 , 250) ; display: inline ; float: none&quot;&gt;newCallbackPriority === other&lt;/span&gt;" style="text;whiteSpace=wrap;html=1;fontSize=1;fontColor=#6666FF;" vertex="1" parent="1">
          <mxGeometry x="420" y="780" width="380" height="20" as="geometry" />
        </mxCell>
      </root>
    </mxGraphModel>
  </diagram>
  <diagram id="I2QeTn85nPj7NLiVw9hx" name="Page-2">
    <mxGraphModel dx="2234" dy="1972" grid="1" gridSize="10" guides="1" tooltips="1" connect="1" arrows="1" fold="1" page="1" pageScale="1" pageWidth="827" pageHeight="1169" math="0" shadow="0">
      <root>
        <mxCell id="XqVWHYIMarAri33oOuAz-0" />
        <mxCell id="XqVWHYIMarAri33oOuAz-1" parent="XqVWHYIMarAri33oOuAz-0" />
        <mxCell id="WqtkJ0UClnYk493TSoWW-2" value="" style="edgeStyle=orthogonalEdgeStyle;rounded=0;orthogonalLoop=1;jettySize=auto;html=1;" parent="XqVWHYIMarAri33oOuAz-1" source="WqtkJ0UClnYk493TSoWW-0" target="WqtkJ0UClnYk493TSoWW-1" edge="1">
          <mxGeometry relative="1" as="geometry" />
        </mxCell>
        <mxCell id="WqtkJ0UClnYk493TSoWW-0" value="&lt;pre class=&quot;language-sh&quot; style=&quot;background: transparent ; font-family: &amp;#34;consolas&amp;#34; , &amp;#34;monaco&amp;#34; , &amp;#34;andale mono&amp;#34; , &amp;#34;ubuntu mono&amp;#34; , monospace ; font-size: 16px ; text-align: left ; word-spacing: 0px ; word-break: normal ; overflow-wrap: normal ; line-height: 1.4 ; padding: 1.25rem 1.5rem ; margin: 0.85rem 0px ; overflow: auto ; border-radius: 6px ; position: relative ; z-index: 1 ; font-style: normal ; font-weight: 400 ; letter-spacing: normal ; text-indent: 0px ; text-transform: none&quot;&gt;&lt;pre class=&quot;language-sh&quot; style=&quot;background: transparent ; font-family: &amp;#34;consolas&amp;#34; , &amp;#34;monaco&amp;#34; , &amp;#34;andale mono&amp;#34; , &amp;#34;ubuntu mono&amp;#34; , monospace ; word-break: normal ; overflow-wrap: normal ; line-height: 1.4 ; padding: 1.25rem 1.5rem ; margin-top: 0.85rem ; margin-bottom: 0.85rem ; overflow: auto ; border-radius: 6px ; position: relative ; z-index: 1&quot;&gt;&lt;code style=&quot;padding: 0px ; margin: 0px ; background-color: transparent ; border-radius: 0px&quot;&gt;createRootImpl（&lt;font color=&quot;#330000&quot; style=&quot;font-size: 16px&quot;&gt;创建&lt;/font&gt;&lt;/code&gt;fiberRootNode、rootFiber）&lt;/pre&gt;&lt;/pre&gt;" style="rounded=0;whiteSpace=wrap;html=1;fillColor=#FFFFFF;" parent="XqVWHYIMarAri33oOuAz-1" vertex="1">
          <mxGeometry x="-135" y="10" width="750" height="60" as="geometry" />
        </mxCell>
        <mxCell id="WqtkJ0UClnYk493TSoWW-4" value="" style="edgeStyle=orthogonalEdgeStyle;rounded=0;orthogonalLoop=1;jettySize=auto;html=1;" parent="XqVWHYIMarAri33oOuAz-1" source="WqtkJ0UClnYk493TSoWW-1" target="WqtkJ0UClnYk493TSoWW-3" edge="1">
          <mxGeometry relative="1" as="geometry" />
        </mxCell>
        <mxCell id="WqtkJ0UClnYk493TSoWW-1" value="&lt;span style=&quot;color: rgb(51 , 51 , 51) ; font-family: &amp;#34;vollkorn&amp;#34; , &amp;#34;palatino&amp;#34; , &amp;#34;times&amp;#34; ; font-size: 19px ; text-align: justify ; background-color: rgb(254 , 254 , 254)&quot;&gt;updateContainer&lt;code style=&quot;background-color: transparent ; text-align: left ; color: rgb(0 , 0 , 0) ; padding: 0px ; margin: 0px ; font-size: 0.85em ; border-radius: 0px&quot;&gt;&lt;font color=&quot;#330000&quot;&gt;(&lt;/font&gt;&lt;/code&gt;&lt;span style=&quot;background-color: transparent ; font-family: &amp;#34;consolas&amp;#34; , &amp;#34;monaco&amp;#34; , &amp;#34;andale mono&amp;#34; , &amp;#34;ubuntu mono&amp;#34; , monospace ; font-size: 16px ; text-align: left ; color: rgb(0 , 0 , 0)&quot;&gt;创建Update对象 保存在updateQueue环状链表中)&lt;/span&gt;&lt;br&gt;&lt;/span&gt;" style="whiteSpace=wrap;html=1;rounded=0;fillColor=#FFFFFF;" parent="XqVWHYIMarAri33oOuAz-1" vertex="1">
          <mxGeometry x="-30" y="120" width="540" height="60" as="geometry" />
        </mxCell>
        <mxCell id="WqtkJ0UClnYk493TSoWW-7" value="" style="edgeStyle=orthogonalEdgeStyle;rounded=0;orthogonalLoop=1;jettySize=auto;html=1;" parent="XqVWHYIMarAri33oOuAz-1" source="WqtkJ0UClnYk493TSoWW-3" target="WqtkJ0UClnYk493TSoWW-6" edge="1">
          <mxGeometry relative="1" as="geometry" />
        </mxCell>
        <mxCell id="WqtkJ0UClnYk493TSoWW-3" value="&lt;div style=&quot;text-align: left ; font-size: 16px&quot;&gt;&lt;font color=&quot;#330000&quot; style=&quot;font-size: 16px&quot;&gt;&lt;span style=&quot;font-family: &amp;#34;vollkorn&amp;#34; , &amp;#34;palatino&amp;#34; , &amp;#34;times&amp;#34; ; text-align: justify ; background-color: rgb(254 , 254 , 254)&quot;&gt;sc&lt;/span&gt;&lt;span style=&quot;font-family: &amp;#34;vollkorn&amp;#34; , &amp;#34;palatino&amp;#34; , &amp;#34;times&amp;#34; ; text-align: justify ; background-color: rgb(254 , 254 , 254)&quot;&gt;h&lt;/span&gt;&lt;span style=&quot;font-family: &amp;#34;vollkorn&amp;#34; , &amp;#34;palatino&amp;#34; , &amp;#34;times&amp;#34; ; text-align: justify ; background-color: rgb(254 , 254 , 254)&quot;&gt;e&lt;/span&gt;&lt;span style=&quot;font-family: &amp;#34;vollkorn&amp;#34; , &amp;#34;palatino&amp;#34; , &amp;#34;times&amp;#34; ; text-align: justify ; background-color: rgb(254 , 254 , 254)&quot;&gt;du&lt;/span&gt;&lt;span style=&quot;font-family: &amp;#34;vollkorn&amp;#34; , &amp;#34;palatino&amp;#34; , &amp;#34;times&amp;#34; ; text-align: justify ; background-color: rgb(254 , 254 , 254)&quot;&gt;leUpdateOnFiber&lt;/span&gt;&lt;span style=&quot;text-align: justify ; background-color: rgb(254 , 254 , 254)&quot;&gt;&lt;font face=&quot;monospace&quot; style=&quot;font-size: 16px&quot;&gt;（在Fiber中调度update）&lt;/font&gt;&lt;/span&gt;&lt;/font&gt;&lt;/div&gt;&lt;div style=&quot;text-align: left ; font-size: 16px&quot;&gt;&lt;span style=&quot;background-color: transparent&quot;&gt;&lt;font color=&quot;#330000&quot; style=&quot;font-size: 16px&quot;&gt;ensureRootIsScheduled（调度根节点）&lt;/font&gt;&lt;/span&gt;&lt;/div&gt;" style="whiteSpace=wrap;html=1;rounded=0;fillColor=#FFFFFF;" parent="XqVWHYIMarAri33oOuAz-1" vertex="1">
          <mxGeometry x="-81.25" y="250" width="642.5" height="60" as="geometry" />
        </mxCell>
        <mxCell id="WqtkJ0UClnYk493TSoWW-9" value="" style="edgeStyle=orthogonalEdgeStyle;rounded=0;orthogonalLoop=1;jettySize=auto;html=1;" parent="XqVWHYIMarAri33oOuAz-1" source="WqtkJ0UClnYk493TSoWW-6" target="WqtkJ0UClnYk493TSoWW-8" edge="1">
          <mxGeometry relative="1" as="geometry" />
        </mxCell>
        <mxCell id="WqtkJ0UClnYk493TSoWW-6" value="&lt;pre class=&quot;language-sh&quot; style=&quot;background: transparent ; font-family: &amp;#34;consolas&amp;#34; , &amp;#34;monaco&amp;#34; , &amp;#34;andale mono&amp;#34; , &amp;#34;ubuntu mono&amp;#34; , monospace ; font-size: 16px ; text-align: left ; word-break: normal ; overflow-wrap: normal ; line-height: 1.4 ; padding: 1.25rem 1.5rem ; margin-top: 0.85rem ; margin-bottom: 0.85rem ; overflow: auto ; border-radius: 6px ; position: relative ; z-index: 1&quot;&gt;&lt;font color=&quot;#330000&quot;&gt;&lt;code style=&quot;padding: 0px ; margin: 0px ; background-color: transparent ; border-radius: 0px&quot;&gt;&lt;font style=&quot;font-size: 16px&quot;&gt;&lt;span class=&quot;token variable&quot;&gt;performSyncWorkOnRoot | &lt;/span&gt;&lt;span class=&quot;token variable&quot;&gt;performConcurrentWorkOnRoot (&lt;/span&gt;&lt;/font&gt;&lt;/code&gt;render阶段)&lt;/font&gt;&lt;/pre&gt;" style="whiteSpace=wrap;html=1;rounded=0;fillColor=#FFFFFF;" parent="XqVWHYIMarAri33oOuAz-1" vertex="1">
          <mxGeometry x="-115" y="390" width="710" height="60" as="geometry" />
        </mxCell>
        <mxCell id="WqtkJ0UClnYk493TSoWW-8" value="&lt;pre class=&quot;language-sh&quot; style=&quot;background: transparent ; font-family: &amp;#34;consolas&amp;#34; , &amp;#34;monaco&amp;#34; , &amp;#34;andale mono&amp;#34; , &amp;#34;ubuntu mono&amp;#34; , monospace ; font-size: 16px ; text-align: left ; word-break: normal ; overflow-wrap: normal ; line-height: 1.4 ; padding: 1.25rem 1.5rem ; margin-top: 0.85rem ; margin-bottom: 0.85rem ; overflow: auto ; border-radius: 6px ; position: relative ; z-index: 1&quot;&gt;&lt;font color=&quot;#330000&quot;&gt;&lt;code style=&quot;padding: 0px ; margin: 0px ; background-color: transparent ; border-radius: 0px&quot;&gt;&lt;span class=&quot;token variable&quot;&gt;&lt;font style=&quot;font-size: 16px&quot;&gt;commitRoot（&lt;/font&gt;&lt;/span&gt;&lt;/code&gt;commit阶段）&lt;/font&gt;&lt;/pre&gt;" style="whiteSpace=wrap;html=1;rounded=0;fillColor=#FFFFFF;" parent="XqVWHYIMarAri33oOuAz-1" vertex="1">
          <mxGeometry x="110" y="530" width="260" height="60" as="geometry" />
        </mxCell>
      </root>
    </mxGraphModel>
  </diagram>
  <diagram id="AKlRvEp3978I-dRj6WrD" name="Page-3">
    <mxGraphModel dx="1407" dy="803" grid="1" gridSize="10" guides="1" tooltips="1" connect="1" arrows="1" fold="1" page="1" pageScale="1" pageWidth="827" pageHeight="1169" math="0" shadow="0">
      <root>
        <mxCell id="CxsiBZp---OUuzThcZeD-0" />
        <mxCell id="CxsiBZp---OUuzThcZeD-1" parent="CxsiBZp---OUuzThcZeD-0" />
        <mxCell id="CxsiBZp---OUuzThcZeD-2" value="&lt;font style=&quot;font-size: 16px&quot;&gt;FiberRootNode&lt;/font&gt;" style="rounded=0;whiteSpace=wrap;html=1;" vertex="1" parent="CxsiBZp---OUuzThcZeD-1">
          <mxGeometry x="190" y="200" width="120" height="60" as="geometry" />
        </mxCell>
        <mxCell id="CxsiBZp---OUuzThcZeD-3" value="&lt;font style=&quot;font-size: 16px&quot;&gt;rootFiber&lt;/font&gt;" style="rounded=0;whiteSpace=wrap;html=1;" vertex="1" parent="CxsiBZp---OUuzThcZeD-1">
          <mxGeometry x="100" y="370" width="120" height="60" as="geometry" />
        </mxCell>
        <mxCell id="CxsiBZp---OUuzThcZeD-4" value="" style="endArrow=classic;startArrow=classic;html=1;entryX=0.5;entryY=1;entryDx=0;entryDy=0;exitX=0.5;exitY=0;exitDx=0;exitDy=0;" edge="1" parent="CxsiBZp---OUuzThcZeD-1" source="CxsiBZp---OUuzThcZeD-3" target="CxsiBZp---OUuzThcZeD-2">
          <mxGeometry width="50" height="50" relative="1" as="geometry">
            <mxPoint x="160" y="360" as="sourcePoint" />
            <mxPoint x="210" y="310" as="targetPoint" />
          </mxGeometry>
        </mxCell>
        <mxCell id="CxsiBZp---OUuzThcZeD-7" value="&lt;font style=&quot;font-size: 16px&quot; color=&quot;#7aafff&quot;&gt;current&lt;/font&gt;" style="edgeLabel;html=1;align=center;verticalAlign=middle;resizable=0;points=[];" vertex="1" connectable="0" parent="CxsiBZp---OUuzThcZeD-4">
          <mxGeometry x="-0.0218" y="-1" relative="1" as="geometry">
            <mxPoint x="-45.1" y="-6.46" as="offset" />
          </mxGeometry>
        </mxCell>
        <mxCell id="CxsiBZp---OUuzThcZeD-8" value="&lt;font style=&quot;font-size: 16px&quot; color=&quot;#7aafff&quot;&gt;stateNode&lt;/font&gt;" style="text;html=1;align=center;verticalAlign=middle;resizable=0;points=[];autosize=1;" vertex="1" parent="CxsiBZp---OUuzThcZeD-1">
          <mxGeometry x="230" y="300" width="90" height="20" as="geometry" />
        </mxCell>
      </root>
    </mxGraphModel>
  </diagram>
  <diagram id="pQ9U5Khi-AmOMjb4uVF4" name="Page-4">
    <mxGraphModel dx="1407" dy="803" grid="1" gridSize="10" guides="1" tooltips="1" connect="1" arrows="1" fold="1" page="1" pageScale="1" pageWidth="827" pageHeight="1169" math="0" shadow="0">
      <root>
        <mxCell id="5vNLGimK3uI5iIIYFMMe-0" />
        <mxCell id="5vNLGimK3uI5iIIYFMMe-1" parent="5vNLGimK3uI5iIIYFMMe-0" />
        <mxCell id="5vNLGimK3uI5iIIYFMMe-9" value="" style="edgeStyle=none;rounded=0;orthogonalLoop=1;jettySize=auto;html=1;strokeWidth=1;" edge="1" parent="5vNLGimK3uI5iIIYFMMe-1">
          <mxGeometry relative="1" as="geometry">
            <mxPoint x="210" y="280" as="sourcePoint" />
            <mxPoint x="210" y="370" as="targetPoint" />
          </mxGeometry>
        </mxCell>
        <mxCell id="5vNLGimK3uI5iIIYFMMe-35" style="edgeStyle=none;rounded=0;orthogonalLoop=1;jettySize=auto;html=1;exitX=0.75;exitY=0;exitDx=0;exitDy=0;entryX=0.75;entryY=1;entryDx=0;entryDy=0;strokeWidth=1;fontSize=16;fontColor=#6666FF;" edge="1" parent="5vNLGimK3uI5iIIYFMMe-1" source="5vNLGimK3uI5iIIYFMMe-7" target="5vNLGimK3uI5iIIYFMMe-33">
          <mxGeometry relative="1" as="geometry" />
        </mxCell>
        <mxCell id="5vNLGimK3uI5iIIYFMMe-7" value="&lt;font style=&quot;font-size: 16px&quot;&gt;App&lt;/font&gt;" style="rounded=0;whiteSpace=wrap;html=1;strokeWidth=1;" vertex="1" parent="5vNLGimK3uI5iIIYFMMe-1">
          <mxGeometry x="180" y="230" width="120" height="60" as="geometry" />
        </mxCell>
        <mxCell id="5vNLGimK3uI5iIIYFMMe-11" value="" style="edgeStyle=none;rounded=0;orthogonalLoop=1;jettySize=auto;html=1;strokeWidth=1;exitX=0.25;exitY=1;exitDx=0;exitDy=0;entryX=0.25;entryY=0;entryDx=0;entryDy=0;" edge="1" parent="5vNLGimK3uI5iIIYFMMe-1" source="5vNLGimK3uI5iIIYFMMe-8" target="5vNLGimK3uI5iIIYFMMe-10">
          <mxGeometry relative="1" as="geometry" />
        </mxCell>
        <mxCell id="5vNLGimK3uI5iIIYFMMe-20" style="edgeStyle=none;rounded=0;orthogonalLoop=1;jettySize=auto;html=1;strokeWidth=1;entryX=0.75;entryY=1;entryDx=0;entryDy=0;" edge="1" parent="5vNLGimK3uI5iIIYFMMe-1" target="5vNLGimK3uI5iIIYFMMe-7">
          <mxGeometry relative="1" as="geometry">
            <mxPoint x="260" y="295" as="targetPoint" />
            <mxPoint x="270" y="370" as="sourcePoint" />
          </mxGeometry>
        </mxCell>
        <mxCell id="5vNLGimK3uI5iIIYFMMe-22" value="return" style="edgeLabel;html=1;align=center;verticalAlign=middle;resizable=0;points=[];fontSize=16;fontColor=#6666FF;" vertex="1" connectable="0" parent="5vNLGimK3uI5iIIYFMMe-20">
          <mxGeometry x="0.3524" y="-2" relative="1" as="geometry">
            <mxPoint x="35.35" y="11.99" as="offset" />
          </mxGeometry>
        </mxCell>
        <mxCell id="5vNLGimK3uI5iIIYFMMe-8" value="div" style="rounded=0;whiteSpace=wrap;html=1;strokeWidth=1;" vertex="1" parent="5vNLGimK3uI5iIIYFMMe-1">
          <mxGeometry x="180" y="370" width="120" height="60" as="geometry" />
        </mxCell>
        <mxCell id="5vNLGimK3uI5iIIYFMMe-13" value="" style="edgeStyle=none;rounded=0;orthogonalLoop=1;jettySize=auto;html=1;strokeWidth=1;" edge="1" parent="5vNLGimK3uI5iIIYFMMe-1" source="5vNLGimK3uI5iIIYFMMe-10" target="5vNLGimK3uI5iIIYFMMe-12">
          <mxGeometry relative="1" as="geometry" />
        </mxCell>
        <mxCell id="5vNLGimK3uI5iIIYFMMe-18" style="edgeStyle=none;rounded=0;orthogonalLoop=1;jettySize=auto;html=1;entryX=0.75;entryY=1;entryDx=0;entryDy=0;strokeWidth=1;exitX=0.75;exitY=0;exitDx=0;exitDy=0;" edge="1" parent="5vNLGimK3uI5iIIYFMMe-1" source="5vNLGimK3uI5iIIYFMMe-10" target="5vNLGimK3uI5iIIYFMMe-8">
          <mxGeometry relative="1" as="geometry" />
        </mxCell>
        <mxCell id="5vNLGimK3uI5iIIYFMMe-10" value="xiao" style="rounded=0;whiteSpace=wrap;html=1;strokeWidth=1;" vertex="1" parent="5vNLGimK3uI5iIIYFMMe-1">
          <mxGeometry x="180" y="510" width="120" height="60" as="geometry" />
        </mxCell>
        <mxCell id="5vNLGimK3uI5iIIYFMMe-15" value="" style="edgeStyle=none;rounded=0;orthogonalLoop=1;jettySize=auto;html=1;strokeWidth=1;exitX=0.25;exitY=1;exitDx=0;exitDy=0;entryX=0.25;entryY=0;entryDx=0;entryDy=0;" edge="1" parent="5vNLGimK3uI5iIIYFMMe-1" source="5vNLGimK3uI5iIIYFMMe-12" target="5vNLGimK3uI5iIIYFMMe-14">
          <mxGeometry relative="1" as="geometry">
            <mxPoint x="430" y="571" as="sourcePoint" />
            <mxPoint x="430" y="649" as="targetPoint" />
          </mxGeometry>
        </mxCell>
        <mxCell id="5vNLGimK3uI5iIIYFMMe-21" style="edgeStyle=none;rounded=0;orthogonalLoop=1;jettySize=auto;html=1;strokeWidth=1;" edge="1" parent="5vNLGimK3uI5iIIYFMMe-1" source="5vNLGimK3uI5iIIYFMMe-12" target="5vNLGimK3uI5iIIYFMMe-8">
          <mxGeometry relative="1" as="geometry" />
        </mxCell>
        <mxCell id="5vNLGimK3uI5iIIYFMMe-12" value="p" style="rounded=0;whiteSpace=wrap;html=1;strokeWidth=1;" vertex="1" parent="5vNLGimK3uI5iIIYFMMe-1">
          <mxGeometry x="610" y="510" width="120" height="60" as="geometry" />
        </mxCell>
        <mxCell id="5vNLGimK3uI5iIIYFMMe-17" style="edgeStyle=none;rounded=0;orthogonalLoop=1;jettySize=auto;html=1;strokeWidth=1;exitX=0.75;exitY=0;exitDx=0;exitDy=0;entryX=0.75;entryY=1;entryDx=0;entryDy=0;" edge="1" parent="5vNLGimK3uI5iIIYFMMe-1" source="5vNLGimK3uI5iIIYFMMe-14" target="5vNLGimK3uI5iIIYFMMe-12">
          <mxGeometry relative="1" as="geometry">
            <mxPoint x="463" y="650" as="sourcePoint" />
            <mxPoint x="463" y="570" as="targetPoint" />
          </mxGeometry>
        </mxCell>
        <mxCell id="5vNLGimK3uI5iIIYFMMe-14" value="chen" style="rounded=0;whiteSpace=wrap;html=1;strokeWidth=1;" vertex="1" parent="5vNLGimK3uI5iIIYFMMe-1">
          <mxGeometry x="610" y="670" width="120" height="60" as="geometry" />
        </mxCell>
        <mxCell id="5vNLGimK3uI5iIIYFMMe-23" value="&lt;font color=&quot;#6666ff&quot;&gt;child&lt;/font&gt;" style="text;html=1;align=center;verticalAlign=middle;resizable=0;points=[];autosize=1;fontSize=16;" vertex="1" parent="5vNLGimK3uI5iIIYFMMe-1">
          <mxGeometry x="150" y="310" width="50" height="20" as="geometry" />
        </mxCell>
        <mxCell id="5vNLGimK3uI5iIIYFMMe-24" value="&lt;font color=&quot;#6666ff&quot;&gt;child&lt;/font&gt;" style="text;html=1;align=center;verticalAlign=middle;resizable=0;points=[];autosize=1;fontSize=16;" vertex="1" parent="5vNLGimK3uI5iIIYFMMe-1">
          <mxGeometry x="160" y="450" width="50" height="20" as="geometry" />
        </mxCell>
        <mxCell id="5vNLGimK3uI5iIIYFMMe-25" value="" style="text;html=1;align=center;verticalAlign=middle;resizable=0;points=[];autosize=1;fontSize=16;" vertex="1" parent="5vNLGimK3uI5iIIYFMMe-1">
          <mxGeometry x="360" y="600" width="50" height="20" as="geometry" />
        </mxCell>
        <mxCell id="5vNLGimK3uI5iIIYFMMe-29" value="&lt;font color=&quot;#6666ff&quot;&gt;child&lt;/font&gt;" style="text;html=1;align=center;verticalAlign=middle;resizable=0;points=[];autosize=1;fontSize=16;" vertex="1" parent="5vNLGimK3uI5iIIYFMMe-1">
          <mxGeometry x="580" y="600" width="50" height="20" as="geometry" />
        </mxCell>
        <mxCell id="5vNLGimK3uI5iIIYFMMe-30" value="return" style="edgeLabel;html=1;align=center;verticalAlign=middle;resizable=0;points=[];fontSize=16;fontColor=#6666FF;" vertex="1" connectable="0" parent="5vNLGimK3uI5iIIYFMMe-1">
          <mxGeometry x="759.998771970176" y="610.0014268812381" as="geometry" />
        </mxCell>
        <mxCell id="5vNLGimK3uI5iIIYFMMe-31" value="return" style="edgeLabel;html=1;align=center;verticalAlign=middle;resizable=0;points=[];fontSize=16;fontColor=#6666FF;" vertex="1" connectable="0" parent="5vNLGimK3uI5iIIYFMMe-1">
          <mxGeometry x="489.998771970176" y="460.0014268812381" as="geometry" />
        </mxCell>
        <mxCell id="5vNLGimK3uI5iIIYFMMe-32" value="return" style="edgeLabel;html=1;align=center;verticalAlign=middle;resizable=0;points=[];fontSize=16;fontColor=#6666FF;" vertex="1" connectable="0" parent="5vNLGimK3uI5iIIYFMMe-1">
          <mxGeometry x="299.998771970176" y="470.0014268812381" as="geometry" />
        </mxCell>
        <mxCell id="5vNLGimK3uI5iIIYFMMe-34" style="edgeStyle=none;rounded=0;orthogonalLoop=1;jettySize=auto;html=1;entryX=0.25;entryY=0;entryDx=0;entryDy=0;strokeWidth=1;fontSize=16;fontColor=#6666FF;exitX=0.25;exitY=1;exitDx=0;exitDy=0;" edge="1" parent="5vNLGimK3uI5iIIYFMMe-1" source="5vNLGimK3uI5iIIYFMMe-33" target="5vNLGimK3uI5iIIYFMMe-7">
          <mxGeometry relative="1" as="geometry" />
        </mxCell>
        <mxCell id="5vNLGimK3uI5iIIYFMMe-33" value="rootFiber" style="rounded=0;whiteSpace=wrap;html=1;strokeWidth=1;fontSize=16;fontColor=#6666FF;" vertex="1" parent="5vNLGimK3uI5iIIYFMMe-1">
          <mxGeometry x="180" y="110" width="120" height="60" as="geometry" />
        </mxCell>
        <mxCell id="5vNLGimK3uI5iIIYFMMe-36" value="&lt;font color=&quot;#6666ff&quot;&gt;child&lt;/font&gt;" style="text;html=1;align=center;verticalAlign=middle;resizable=0;points=[];autosize=1;fontSize=16;" vertex="1" parent="5vNLGimK3uI5iIIYFMMe-1">
          <mxGeometry x="150" y="180" width="50" height="20" as="geometry" />
        </mxCell>
        <mxCell id="5vNLGimK3uI5iIIYFMMe-37" value="return" style="edgeLabel;html=1;align=center;verticalAlign=middle;resizable=0;points=[];fontSize=16;fontColor=#6666FF;" vertex="1" connectable="0" parent="5vNLGimK3uI5iIIYFMMe-1">
          <mxGeometry x="317.3499999999999" y="330" as="geometry">
            <mxPoint x="-15" y="-132" as="offset" />
          </mxGeometry>
        </mxCell>
        <mxCell id="5vNLGimK3uI5iIIYFMMe-38" value="&lt;span style=&quot;color: rgb(204 , 0 , 204)&quot;&gt;1.beginWork&lt;/span&gt;" style="text;html=1;strokeColor=none;fillColor=none;align=center;verticalAlign=middle;whiteSpace=wrap;rounded=0;fontSize=16;fontColor=#6666FF;" vertex="1" parent="5vNLGimK3uI5iIIYFMMe-1">
          <mxGeometry x="110" y="110" width="40" height="20" as="geometry" />
        </mxCell>
        <mxCell id="5vNLGimK3uI5iIIYFMMe-40" value="&lt;span style=&quot;color: rgb(204 , 0 , 204)&quot;&gt;6.beginWork&lt;/span&gt;" style="text;html=1;strokeColor=none;fillColor=none;align=center;verticalAlign=middle;whiteSpace=wrap;rounded=0;fontSize=16;fontColor=#6666FF;" vertex="1" parent="5vNLGimK3uI5iIIYFMMe-1">
          <mxGeometry x="540" y="510" width="40" height="20" as="geometry" />
        </mxCell>
        <mxCell id="5vNLGimK3uI5iIIYFMMe-41" value="&lt;span style=&quot;color: rgb(204 , 0 , 204)&quot;&gt;3.beginWork&lt;/span&gt;" style="text;html=1;strokeColor=none;fillColor=none;align=center;verticalAlign=middle;whiteSpace=wrap;rounded=0;fontSize=16;fontColor=#6666FF;" vertex="1" parent="5vNLGimK3uI5iIIYFMMe-1">
          <mxGeometry x="110" y="370" width="40" height="20" as="geometry" />
        </mxCell>
        <mxCell id="5vNLGimK3uI5iIIYFMMe-42" value="&lt;span style=&quot;color: rgb(204 , 0 , 204)&quot;&gt;2.beginWork&lt;/span&gt;" style="text;html=1;strokeColor=none;fillColor=none;align=center;verticalAlign=middle;whiteSpace=wrap;rounded=0;fontSize=16;fontColor=#6666FF;" vertex="1" parent="5vNLGimK3uI5iIIYFMMe-1">
          <mxGeometry x="110" y="230" width="40" height="20" as="geometry" />
        </mxCell>
        <mxCell id="5vNLGimK3uI5iIIYFMMe-43" value="&lt;font color=&quot;#00cc00&quot;&gt;5.completeWork&lt;/font&gt;" style="text;html=1;align=center;verticalAlign=middle;resizable=0;points=[];autosize=1;fontSize=16;fontColor=#6666FF;" vertex="1" parent="5vNLGimK3uI5iIIYFMMe-1">
          <mxGeometry x="300" y="510" width="130" height="20" as="geometry" />
        </mxCell>
        <mxCell id="5vNLGimK3uI5iIIYFMMe-50" value="&lt;span style=&quot;color: rgb(204 , 0 , 204)&quot;&gt;4.beginWork&lt;/span&gt;" style="text;html=1;strokeColor=none;fillColor=none;align=center;verticalAlign=middle;whiteSpace=wrap;rounded=0;fontSize=16;fontColor=#6666FF;" vertex="1" parent="5vNLGimK3uI5iIIYFMMe-1">
          <mxGeometry x="110" y="510" width="40" height="20" as="geometry" />
        </mxCell>
        <mxCell id="5vNLGimK3uI5iIIYFMMe-53" style="edgeStyle=none;rounded=0;orthogonalLoop=1;jettySize=auto;html=1;exitX=0.25;exitY=1;exitDx=0;exitDy=0;strokeWidth=1;fontSize=16;fontColor=#6666FF;" edge="1" parent="5vNLGimK3uI5iIIYFMMe-1" source="5vNLGimK3uI5iIIYFMMe-50" target="5vNLGimK3uI5iIIYFMMe-50">
          <mxGeometry relative="1" as="geometry" />
        </mxCell>
        <mxCell id="5vNLGimK3uI5iIIYFMMe-62" value="&lt;font color=&quot;#00cc00&quot;&gt;7.completeWork&lt;/font&gt;" style="text;html=1;align=center;verticalAlign=middle;resizable=0;points=[];autosize=1;fontSize=16;fontColor=#6666FF;" vertex="1" parent="5vNLGimK3uI5iIIYFMMe-1">
          <mxGeometry x="730" y="510" width="130" height="20" as="geometry" />
        </mxCell>
        <mxCell id="5vNLGimK3uI5iIIYFMMe-63" value="&lt;font color=&quot;#00cc00&quot;&gt;10.completeWork&lt;/font&gt;" style="text;html=1;align=center;verticalAlign=middle;resizable=0;points=[];autosize=1;fontSize=16;fontColor=#6666FF;" vertex="1" parent="5vNLGimK3uI5iIIYFMMe-1">
          <mxGeometry x="295" y="110" width="140" height="20" as="geometry" />
        </mxCell>
        <mxCell id="5vNLGimK3uI5iIIYFMMe-64" value="&lt;font color=&quot;#00cc00&quot;&gt;9.completeWork&lt;/font&gt;" style="text;html=1;align=center;verticalAlign=middle;resizable=0;points=[];autosize=1;fontSize=16;fontColor=#6666FF;" vertex="1" parent="5vNLGimK3uI5iIIYFMMe-1">
          <mxGeometry x="300" y="230" width="130" height="20" as="geometry" />
        </mxCell>
        <mxCell id="5vNLGimK3uI5iIIYFMMe-65" value="&lt;font color=&quot;#00cc00&quot;&gt;8.completeWork&lt;/font&gt;" style="text;html=1;align=center;verticalAlign=middle;resizable=0;points=[];autosize=1;fontSize=16;fontColor=#6666FF;" vertex="1" parent="5vNLGimK3uI5iIIYFMMe-1">
          <mxGeometry x="300" y="370" width="130" height="20" as="geometry" />
        </mxCell>
        <mxCell id="HiN3R6wO60_1kr4GmmDF-0" value="sibling" style="text;html=1;align=center;verticalAlign=middle;resizable=0;points=[];autosize=1;fontSize=16;fontColor=#6666FF;" vertex="1" parent="5vNLGimK3uI5iIIYFMMe-1">
          <mxGeometry x="400" y="550" width="60" height="20" as="geometry" />
        </mxCell>
      </root>
    </mxGraphModel>
  </diagram>
  <diagram id="XNsx4kXQAHDcfBQ44gDc" name="Page-5">
    <mxGraphModel dx="4847" dy="2294" grid="1" gridSize="10" guides="1" tooltips="1" connect="1" arrows="1" fold="1" page="1" pageScale="1" pageWidth="827" pageHeight="1169" math="0" shadow="0">
      <root>
        <mxCell id="4G0RWfvHK8gnDnWm_YfS-0" />
        <mxCell id="4G0RWfvHK8gnDnWm_YfS-1" parent="4G0RWfvHK8gnDnWm_YfS-0" />
        <mxCell id="brjRFNIrYUg0g_XjzGQQ-1" value="" style="edgeStyle=orthogonalEdgeStyle;rounded=0;orthogonalLoop=1;jettySize=auto;html=1;strokeWidth=1;" edge="1" parent="4G0RWfvHK8gnDnWm_YfS-1" source="4G0RWfvHK8gnDnWm_YfS-2" target="brjRFNIrYUg0g_XjzGQQ-0">
          <mxGeometry relative="1" as="geometry" />
        </mxCell>
        <mxCell id="4G0RWfvHK8gnDnWm_YfS-2" value="&lt;span style=&quot;color: rgb(51 , 51 , 51) ; font-family: &amp;#34;vollkorn&amp;#34; , &amp;#34;palatino&amp;#34; , &amp;#34;times&amp;#34; ; font-size: 19px ; text-align: justify ; background-color: rgb(254 , 254 , 254)&quot;&gt;performSyncWorkOnRoot&lt;/span&gt;" style="rounded=0;whiteSpace=wrap;html=1;strokeWidth=1;" vertex="1" parent="4G0RWfvHK8gnDnWm_YfS-1">
          <mxGeometry x="20" y="50" width="240" height="60" as="geometry" />
        </mxCell>
        <mxCell id="4eJFShWazooP9JSpo83N-4" value="" style="edgeStyle=orthogonalEdgeStyle;rounded=0;orthogonalLoop=1;jettySize=auto;html=1;strokeWidth=1;" edge="1" parent="4G0RWfvHK8gnDnWm_YfS-1" target="4eJFShWazooP9JSpo83N-3">
          <mxGeometry relative="1" as="geometry">
            <mxPoint x="505" y="70" as="sourcePoint" />
          </mxGeometry>
        </mxCell>
        <mxCell id="4G0RWfvHK8gnDnWm_YfS-3" value="&lt;font style=&quot;font-size: 16px&quot;&gt;workLoopConcurrent&lt;/font&gt;" style="rounded=0;whiteSpace=wrap;html=1;strokeWidth=1;" vertex="1" parent="4G0RWfvHK8gnDnWm_YfS-1">
          <mxGeometry x="380" y="50" width="250" height="60" as="geometry" />
        </mxCell>
        <mxCell id="4eJFShWazooP9JSpo83N-2" value="" style="edgeStyle=orthogonalEdgeStyle;rounded=0;orthogonalLoop=1;jettySize=auto;html=1;strokeWidth=1;" edge="1" parent="4G0RWfvHK8gnDnWm_YfS-1" source="brjRFNIrYUg0g_XjzGQQ-0" target="4eJFShWazooP9JSpo83N-1">
          <mxGeometry relative="1" as="geometry">
            <mxPoint x="270" y="250" as="targetPoint" />
            <Array as="points">
              <mxPoint x="270" y="180" />
            </Array>
          </mxGeometry>
        </mxCell>
        <mxCell id="brjRFNIrYUg0g_XjzGQQ-0" value="&lt;font style=&quot;font-size: 16px&quot;&gt;workLoopSync&lt;/font&gt;" style="whiteSpace=wrap;html=1;rounded=0;strokeWidth=1;" vertex="1" parent="4G0RWfvHK8gnDnWm_YfS-1">
          <mxGeometry x="75" y="140" width="130" height="60" as="geometry" />
        </mxCell>
        <mxCell id="4eJFShWazooP9JSpo83N-7" style="edgeStyle=orthogonalEdgeStyle;rounded=0;orthogonalLoop=1;jettySize=auto;html=1;strokeWidth=1;" edge="1" parent="4G0RWfvHK8gnDnWm_YfS-1" source="4eJFShWazooP9JSpo83N-1" target="4eJFShWazooP9JSpo83N-6">
          <mxGeometry relative="1" as="geometry">
            <Array as="points">
              <mxPoint x="80" y="250" />
              <mxPoint x="80" y="250" />
            </Array>
          </mxGeometry>
        </mxCell>
        <mxCell id="4eJFShWazooP9JSpo83N-9" style="edgeStyle=orthogonalEdgeStyle;rounded=0;orthogonalLoop=1;jettySize=auto;html=1;strokeWidth=1;" edge="1" parent="4G0RWfvHK8gnDnWm_YfS-1" source="4eJFShWazooP9JSpo83N-1" target="4eJFShWazooP9JSpo83N-8">
          <mxGeometry relative="1" as="geometry">
            <mxPoint x="440" y="380" as="targetPoint" />
            <mxPoint x="430" y="250" as="sourcePoint" />
            <Array as="points">
              <mxPoint x="440" y="250" />
            </Array>
          </mxGeometry>
        </mxCell>
        <mxCell id="4eJFShWazooP9JSpo83N-1" value="&lt;font style=&quot;font-size: 16px&quot;&gt;performUnitOfWork&lt;/font&gt;" style="whiteSpace=wrap;html=1;rounded=0;strokeWidth=1;" vertex="1" parent="4G0RWfvHK8gnDnWm_YfS-1">
          <mxGeometry x="164" y="220" width="250" height="60" as="geometry" />
        </mxCell>
        <mxCell id="4eJFShWazooP9JSpo83N-5" style="edgeStyle=orthogonalEdgeStyle;rounded=0;orthogonalLoop=1;jettySize=auto;html=1;strokeWidth=1;" edge="1" parent="4G0RWfvHK8gnDnWm_YfS-1" source="4eJFShWazooP9JSpo83N-3" target="4eJFShWazooP9JSpo83N-1">
          <mxGeometry relative="1" as="geometry">
            <mxPoint x="309" y="268" as="targetPoint" />
            <Array as="points">
              <mxPoint x="309" y="180" />
            </Array>
          </mxGeometry>
        </mxCell>
        <mxCell id="4eJFShWazooP9JSpo83N-3" value="&lt;font style=&quot;font-size: 16px&quot;&gt;workLoopConcurrent&lt;/font&gt;" style="rounded=0;whiteSpace=wrap;html=1;strokeWidth=1;" vertex="1" parent="4G0RWfvHK8gnDnWm_YfS-1">
          <mxGeometry x="380" y="140" width="250" height="60" as="geometry" />
        </mxCell>
        <mxCell id="EvWEASdhaJmHJclCQGnk-1" style="edgeStyle=none;rounded=0;orthogonalLoop=1;jettySize=auto;html=1;exitX=0.5;exitY=1;exitDx=0;exitDy=0;entryX=0.5;entryY=0;entryDx=0;entryDy=0;strokeWidth=1;fontSize=16;fontColor=#6666FF;" edge="1" parent="4G0RWfvHK8gnDnWm_YfS-1" source="4eJFShWazooP9JSpo83N-6" target="EvWEASdhaJmHJclCQGnk-0">
          <mxGeometry relative="1" as="geometry" />
        </mxCell>
        <mxCell id="4eJFShWazooP9JSpo83N-6" value="&lt;font style=&quot;font-size: 16px&quot;&gt;beginWork&lt;/font&gt;" style="rounded=0;whiteSpace=wrap;html=1;strokeWidth=1;fillColor=#fff2cc;strokeColor=#d6b656;" vertex="1" parent="4G0RWfvHK8gnDnWm_YfS-1">
          <mxGeometry x="-70" y="220" width="120" height="60" as="geometry" />
        </mxCell>
        <mxCell id="4eJFShWazooP9JSpo83N-13" value="" style="edgeStyle=orthogonalEdgeStyle;rounded=0;orthogonalLoop=1;jettySize=auto;html=1;strokeWidth=1;" edge="1" parent="4G0RWfvHK8gnDnWm_YfS-1" source="4eJFShWazooP9JSpo83N-8" target="4eJFShWazooP9JSpo83N-12">
          <mxGeometry relative="1" as="geometry">
            <Array as="points">
              <mxPoint x="660" y="250" />
              <mxPoint x="660" y="250" />
            </Array>
          </mxGeometry>
        </mxCell>
        <mxCell id="4eJFShWazooP9JSpo83N-8" value="&lt;font style=&quot;font-size: 16px&quot;&gt;completeUnitOfWork&lt;/font&gt;" style="rounded=0;whiteSpace=wrap;html=1;strokeWidth=1;" vertex="1" parent="4G0RWfvHK8gnDnWm_YfS-1">
          <mxGeometry x="470" y="220" width="170" height="60" as="geometry" />
        </mxCell>
        <mxCell id="Wd-b6KGNQEEcmDvHJwHJ-1" style="edgeStyle=none;rounded=0;orthogonalLoop=1;jettySize=auto;html=1;strokeWidth=1;fontSize=16;fontColor=#6666FF;" edge="1" parent="4G0RWfvHK8gnDnWm_YfS-1" source="4eJFShWazooP9JSpo83N-12">
          <mxGeometry relative="1" as="geometry">
            <mxPoint x="878" y="339" as="targetPoint" />
          </mxGeometry>
        </mxCell>
        <mxCell id="4eJFShWazooP9JSpo83N-12" value="&lt;font style=&quot;font-size: 16px&quot;&gt;completeWork&lt;/font&gt;" style="whiteSpace=wrap;html=1;rounded=0;strokeWidth=1;fillColor=#fff2cc;strokeColor=#d6b656;" vertex="1" parent="4G0RWfvHK8gnDnWm_YfS-1">
          <mxGeometry x="817.5" y="220" width="120" height="60" as="geometry" />
        </mxCell>
        <mxCell id="Gnfx-s-IMWED6dHdetGR-9" style="edgeStyle=none;rounded=0;orthogonalLoop=1;jettySize=auto;html=1;entryX=0.106;entryY=0;entryDx=0;entryDy=0;entryPerimeter=0;strokeWidth=1;fontSize=16;fontColor=#6666FF;" edge="1" parent="4G0RWfvHK8gnDnWm_YfS-1" source="T8Pu93AGW8tL57yZArlc-5" target="T8Pu93AGW8tL57yZArlc-10">
          <mxGeometry relative="1" as="geometry" />
        </mxCell>
        <mxCell id="T8Pu93AGW8tL57yZArlc-5" value="&lt;font style=&quot;font-size: 16px&quot;&gt;&lt;span style=&quot;font-size: 15px&quot;&gt;reconcileChildFibers&lt;/span&gt;&lt;br&gt;&lt;/font&gt;" style="whiteSpace=wrap;html=1;rounded=0;strokeWidth=1;fillColor=#f8cecc;strokeColor=#b85450;" vertex="1" parent="4G0RWfvHK8gnDnWm_YfS-1">
          <mxGeometry x="120" y="635" width="160" height="60" as="geometry" />
        </mxCell>
        <mxCell id="Gnfx-s-IMWED6dHdetGR-12" style="edgeStyle=none;rounded=0;orthogonalLoop=1;jettySize=auto;html=1;entryX=0.839;entryY=0;entryDx=0;entryDy=0;entryPerimeter=0;strokeWidth=1;fontSize=16;fontColor=#6666FF;exitX=0.25;exitY=1;exitDx=0;exitDy=0;" edge="1" parent="4G0RWfvHK8gnDnWm_YfS-1" source="T8Pu93AGW8tL57yZArlc-8" target="T8Pu93AGW8tL57yZArlc-10">
          <mxGeometry relative="1" as="geometry" />
        </mxCell>
        <mxCell id="T8Pu93AGW8tL57yZArlc-8" value="&lt;span style=&quot;font-size: 16px&quot;&gt;mountChildFibers&lt;/span&gt;" style="whiteSpace=wrap;html=1;rounded=0;strokeWidth=1;fillColor=#f8cecc;strokeColor=#b85450;" vertex="1" parent="4G0RWfvHK8gnDnWm_YfS-1">
          <mxGeometry x="310" y="635" width="150" height="60" as="geometry" />
        </mxCell>
        <mxCell id="T8Pu93AGW8tL57yZArlc-16" value="" style="edgeStyle=none;rounded=0;orthogonalLoop=1;jettySize=auto;html=1;strokeWidth=1;entryX=0.425;entryY=-0.067;entryDx=0;entryDy=0;entryPerimeter=0;" edge="1" parent="4G0RWfvHK8gnDnWm_YfS-1" source="T8Pu93AGW8tL57yZArlc-10" target="SYxUxyWkT1x7NIA6tDOL-2">
          <mxGeometry relative="1" as="geometry">
            <mxPoint x="270" y="850" as="targetPoint" />
          </mxGeometry>
        </mxCell>
        <mxCell id="T8Pu93AGW8tL57yZArlc-10" value="&lt;font style=&quot;font-size: 16px&quot;&gt;ChildReconciler&lt;/font&gt;" style="whiteSpace=wrap;html=1;rounded=0;strokeWidth=1;" vertex="1" parent="4G0RWfvHK8gnDnWm_YfS-1">
          <mxGeometry x="180" y="765" width="200" height="60" as="geometry" />
        </mxCell>
        <mxCell id="SYxUxyWkT1x7NIA6tDOL-2" value="&lt;font style=&quot;font-size: 16px&quot;&gt;createFiber&lt;/font&gt;" style="whiteSpace=wrap;html=1;rounded=0;strokeWidth=1;" vertex="1" parent="4G0RWfvHK8gnDnWm_YfS-1">
          <mxGeometry x="230" y="865" width="120" height="60" as="geometry" />
        </mxCell>
        <mxCell id="B45Lsawqpnwa3R1hJFS2-1" style="edgeStyle=none;rounded=0;orthogonalLoop=1;jettySize=auto;html=1;entryX=0.5;entryY=0;entryDx=0;entryDy=0;strokeWidth=1;fontSize=16;fontColor=#6666FF;" edge="1" parent="4G0RWfvHK8gnDnWm_YfS-1" source="EvWEASdhaJmHJclCQGnk-0" target="B45Lsawqpnwa3R1hJFS2-0">
          <mxGeometry relative="1" as="geometry">
            <Array as="points">
              <mxPoint x="-315" y="360" />
            </Array>
          </mxGeometry>
        </mxCell>
        <mxCell id="1dnsTRZXECjBR7dpgOnt-0" style="edgeStyle=none;rounded=0;orthogonalLoop=1;jettySize=auto;html=1;strokeWidth=1;fontSize=16;fontColor=#6666FF;exitX=1;exitY=0.5;exitDx=0;exitDy=0;" edge="1" parent="4G0RWfvHK8gnDnWm_YfS-1" source="EvWEASdhaJmHJclCQGnk-0">
          <mxGeometry relative="1" as="geometry">
            <mxPoint x="350" y="490" as="targetPoint" />
            <Array as="points">
              <mxPoint x="350" y="365" />
            </Array>
          </mxGeometry>
        </mxCell>
        <mxCell id="EvWEASdhaJmHJclCQGnk-0" value="&lt;font color=&quot;#330000&quot;&gt;current===null&lt;br&gt;update | mount&lt;/font&gt;" style="rhombus;whiteSpace=wrap;html=1;strokeWidth=1;fontSize=16;fontColor=#6666FF;" vertex="1" parent="4G0RWfvHK8gnDnWm_YfS-1">
          <mxGeometry x="-110" y="320" width="200" height="90" as="geometry" />
        </mxCell>
        <mxCell id="1dnsTRZXECjBR7dpgOnt-1" style="edgeStyle=none;rounded=0;orthogonalLoop=1;jettySize=auto;html=1;entryX=0.209;entryY=-0.033;entryDx=0;entryDy=0;strokeWidth=1;fontSize=16;fontColor=#6666FF;entryPerimeter=0;" edge="1" parent="4G0RWfvHK8gnDnWm_YfS-1" source="B45Lsawqpnwa3R1hJFS2-0" target="B45Lsawqpnwa3R1hJFS2-3">
          <mxGeometry relative="1" as="geometry">
            <Array as="points">
              <mxPoint x="207" y="450" />
            </Array>
          </mxGeometry>
        </mxCell>
        <mxCell id="1dnsTRZXECjBR7dpgOnt-2" style="edgeStyle=none;rounded=0;orthogonalLoop=1;jettySize=auto;html=1;exitX=0.5;exitY=1;exitDx=0;exitDy=0;strokeWidth=1;fontSize=16;fontColor=#6666FF;" edge="1" parent="4G0RWfvHK8gnDnWm_YfS-1" source="B45Lsawqpnwa3R1hJFS2-0" target="B45Lsawqpnwa3R1hJFS2-2">
          <mxGeometry relative="1" as="geometry" />
        </mxCell>
        <mxCell id="B45Lsawqpnwa3R1hJFS2-0" value="&lt;font color=&quot;#330000&quot;&gt;是否能复用&lt;/font&gt;" style="rhombus;whiteSpace=wrap;html=1;strokeWidth=1;fontSize=16;fontColor=#6666FF;" vertex="1" parent="4G0RWfvHK8gnDnWm_YfS-1">
          <mxGeometry x="-365" y="410" width="100" height="80" as="geometry" />
        </mxCell>
        <mxCell id="Gnfx-s-IMWED6dHdetGR-1" style="edgeStyle=none;rounded=0;orthogonalLoop=1;jettySize=auto;html=1;entryX=0.5;entryY=0;entryDx=0;entryDy=0;strokeWidth=1;fontSize=16;fontColor=#6666FF;" edge="1" parent="4G0RWfvHK8gnDnWm_YfS-1" source="B45Lsawqpnwa3R1hJFS2-2" target="Gnfx-s-IMWED6dHdetGR-0">
          <mxGeometry relative="1" as="geometry" />
        </mxCell>
        <mxCell id="B45Lsawqpnwa3R1hJFS2-2" value="&lt;span style=&quot;font-family: &amp;#34;vollkorn&amp;#34; , &amp;#34;palatino&amp;#34; , &amp;#34;times&amp;#34; ; font-size: 19px ; text-align: justify ; background-color: rgb(248 , 206 , 204)&quot;&gt;&lt;font color=&quot;#330000&quot;&gt;bailoutOnAlreadyFinishedWork&lt;/font&gt;&lt;/span&gt;" style="rounded=0;whiteSpace=wrap;html=1;strokeWidth=1;fontSize=16;strokeColor=#b85450;fillColor=#f8cecc;" vertex="1" parent="4G0RWfvHK8gnDnWm_YfS-1">
          <mxGeometry x="-457.5" y="540" width="285" height="60" as="geometry" />
        </mxCell>
        <mxCell id="Gnfx-s-IMWED6dHdetGR-7" style="edgeStyle=none;rounded=0;orthogonalLoop=1;jettySize=auto;html=1;entryX=0.25;entryY=0;entryDx=0;entryDy=0;strokeWidth=1;fontSize=16;fontColor=#6666FF;exitX=0.863;exitY=1.017;exitDx=0;exitDy=0;exitPerimeter=0;" edge="1" parent="4G0RWfvHK8gnDnWm_YfS-1" source="B45Lsawqpnwa3R1hJFS2-3" target="T8Pu93AGW8tL57yZArlc-8">
          <mxGeometry relative="1" as="geometry" />
        </mxCell>
        <mxCell id="Gnfx-s-IMWED6dHdetGR-11" style="edgeStyle=none;rounded=0;orthogonalLoop=1;jettySize=auto;html=1;entryX=0.5;entryY=0;entryDx=0;entryDy=0;strokeWidth=1;fontSize=16;fontColor=#6666FF;exitX=0.17;exitY=1.033;exitDx=0;exitDy=0;exitPerimeter=0;" edge="1" parent="4G0RWfvHK8gnDnWm_YfS-1" source="B45Lsawqpnwa3R1hJFS2-3" target="T8Pu93AGW8tL57yZArlc-5">
          <mxGeometry relative="1" as="geometry" />
        </mxCell>
        <mxCell id="B45Lsawqpnwa3R1hJFS2-3" value="&lt;font color=&quot;#330000&quot;&gt;根据workProgress.tag进入不同Fiber创建函数&lt;/font&gt;" style="rounded=0;whiteSpace=wrap;html=1;strokeWidth=1;fontSize=16;fontColor=#6666FF;" vertex="1" parent="4G0RWfvHK8gnDnWm_YfS-1">
          <mxGeometry x="162.5" y="495" width="215" height="60" as="geometry" />
        </mxCell>
        <mxCell id="1dnsTRZXECjBR7dpgOnt-3" value="update" style="text;html=1;align=center;verticalAlign=middle;resizable=0;points=[];autosize=1;fontSize=16;fontColor=#6666FF;" vertex="1" parent="4G0RWfvHK8gnDnWm_YfS-1">
          <mxGeometry x="-210" y="340" width="60" height="20" as="geometry" />
        </mxCell>
        <mxCell id="1dnsTRZXECjBR7dpgOnt-4" value="mount" style="text;html=1;align=center;verticalAlign=middle;resizable=0;points=[];autosize=1;fontSize=16;fontColor=#6666FF;" vertex="1" parent="4G0RWfvHK8gnDnWm_YfS-1">
          <mxGeometry x="110" y="330" width="60" height="20" as="geometry" />
        </mxCell>
        <mxCell id="1dnsTRZXECjBR7dpgOnt-5" value="否" style="text;html=1;align=center;verticalAlign=middle;resizable=0;points=[];autosize=1;fontSize=16;fontColor=#6666FF;" vertex="1" parent="4G0RWfvHK8gnDnWm_YfS-1">
          <mxGeometry x="-225" y="420" width="30" height="20" as="geometry" />
        </mxCell>
        <mxCell id="1dnsTRZXECjBR7dpgOnt-6" value="能" style="text;html=1;align=center;verticalAlign=middle;resizable=0;points=[];autosize=1;fontSize=16;fontColor=#6666FF;" vertex="1" parent="4G0RWfvHK8gnDnWm_YfS-1">
          <mxGeometry x="-305" y="490" width="30" height="20" as="geometry" />
        </mxCell>
        <mxCell id="Gnfx-s-IMWED6dHdetGR-3" style="edgeStyle=none;rounded=0;orthogonalLoop=1;jettySize=auto;html=1;entryX=0;entryY=0.5;entryDx=0;entryDy=0;strokeWidth=1;fontSize=16;fontColor=#6666FF;" edge="1" parent="4G0RWfvHK8gnDnWm_YfS-1" source="Gnfx-s-IMWED6dHdetGR-0" target="Gnfx-s-IMWED6dHdetGR-2">
          <mxGeometry relative="1" as="geometry" />
        </mxCell>
        <mxCell id="Gnfx-s-IMWED6dHdetGR-5" value="" style="edgeStyle=none;rounded=0;orthogonalLoop=1;jettySize=auto;html=1;strokeWidth=1;fontSize=16;fontColor=#6666FF;exitX=0;exitY=0.5;exitDx=0;exitDy=0;" edge="1" parent="4G0RWfvHK8gnDnWm_YfS-1" source="Gnfx-s-IMWED6dHdetGR-0" target="Gnfx-s-IMWED6dHdetGR-4">
          <mxGeometry relative="1" as="geometry">
            <Array as="points">
              <mxPoint x="-446" y="710" />
            </Array>
          </mxGeometry>
        </mxCell>
        <mxCell id="Gnfx-s-IMWED6dHdetGR-0" value="&lt;font color=&quot;#330000&quot;&gt;节点是否需要更新&lt;/font&gt;" style="rhombus;whiteSpace=wrap;html=1;strokeWidth=1;fontSize=16;fontColor=#6666FF;" vertex="1" parent="4G0RWfvHK8gnDnWm_YfS-1">
          <mxGeometry x="-420" y="670" width="210" height="80" as="geometry" />
        </mxCell>
        <mxCell id="Gnfx-s-IMWED6dHdetGR-2" value="&lt;font color=&quot;#330000&quot;&gt;return null&lt;/font&gt;" style="rounded=0;whiteSpace=wrap;html=1;strokeWidth=1;fontSize=16;fontColor=#6666FF;" vertex="1" parent="4G0RWfvHK8gnDnWm_YfS-1">
          <mxGeometry x="-160" y="680" width="120" height="60" as="geometry" />
        </mxCell>
        <mxCell id="Gnfx-s-IMWED6dHdetGR-4" value="&lt;font color=&quot;#330000&quot;&gt;cloneChildFibers&lt;/font&gt;" style="whiteSpace=wrap;html=1;fontSize=16;fontColor=#6666FF;strokeWidth=1;" vertex="1" parent="4G0RWfvHK8gnDnWm_YfS-1">
          <mxGeometry x="-510" y="820" width="130" height="60" as="geometry" />
        </mxCell>
        <mxCell id="Gnfx-s-IMWED6dHdetGR-13" value="diff算法" style="text;html=1;align=center;verticalAlign=middle;resizable=0;points=[];autosize=1;fontSize=16;fontColor=#6666FF;" vertex="1" parent="4G0RWfvHK8gnDnWm_YfS-1">
          <mxGeometry x="120" y="715" width="70" height="20" as="geometry" />
        </mxCell>
        <mxCell id="Gnfx-s-IMWED6dHdetGR-14" value="否" style="text;html=1;align=center;verticalAlign=middle;resizable=0;points=[];autosize=1;fontSize=16;fontColor=#6666FF;" vertex="1" parent="4G0RWfvHK8gnDnWm_YfS-1">
          <mxGeometry x="-210" y="680" width="30" height="20" as="geometry" />
        </mxCell>
        <mxCell id="Gnfx-s-IMWED6dHdetGR-15" value="是" style="text;html=1;align=center;verticalAlign=middle;resizable=0;points=[];autosize=1;fontSize=16;fontColor=#6666FF;" vertex="1" parent="4G0RWfvHK8gnDnWm_YfS-1">
          <mxGeometry x="-435" y="750" width="30" height="20" as="geometry" />
        </mxCell>
        <mxCell id="Gnfx-s-IMWED6dHdetGR-17" value="mount" style="text;html=1;align=center;verticalAlign=middle;resizable=0;points=[];autosize=1;fontSize=16;fontColor=#6666FF;" vertex="1" parent="4G0RWfvHK8gnDnWm_YfS-1">
          <mxGeometry x="370" y="575" width="60" height="20" as="geometry" />
        </mxCell>
        <mxCell id="Gnfx-s-IMWED6dHdetGR-18" value="update" style="text;html=1;align=center;verticalAlign=middle;resizable=0;points=[];autosize=1;fontSize=16;fontColor=#6666FF;" vertex="1" parent="4G0RWfvHK8gnDnWm_YfS-1">
          <mxGeometry x="105" y="575" width="60" height="20" as="geometry" />
        </mxCell>
        <mxCell id="Wd-b6KGNQEEcmDvHJwHJ-4" style="edgeStyle=none;rounded=0;orthogonalLoop=1;jettySize=auto;html=1;entryX=0.5;entryY=0;entryDx=0;entryDy=0;strokeWidth=1;fontSize=16;fontColor=#6666FF;" edge="1" parent="4G0RWfvHK8gnDnWm_YfS-1" source="Wd-b6KGNQEEcmDvHJwHJ-0" target="Wd-b6KGNQEEcmDvHJwHJ-2">
          <mxGeometry relative="1" as="geometry">
            <mxPoint x="811.1600000000003" y="401.55999999999995" as="sourcePoint" />
          </mxGeometry>
        </mxCell>
        <mxCell id="Wd-b6KGNQEEcmDvHJwHJ-0" value="&lt;font color=&quot;#330000&quot;&gt;根据workProgress.tag的类型进入不同函数&lt;/font&gt;" style="rounded=0;whiteSpace=wrap;html=1;strokeWidth=1;fontSize=16;fontColor=#6666FF;" vertex="1" parent="4G0RWfvHK8gnDnWm_YfS-1">
          <mxGeometry x="770" y="340" width="215" height="60" as="geometry" />
        </mxCell>
        <mxCell id="Wd-b6KGNQEEcmDvHJwHJ-5" style="edgeStyle=none;rounded=0;orthogonalLoop=1;jettySize=auto;html=1;entryX=0.5;entryY=0;entryDx=0;entryDy=0;strokeWidth=1;fontSize=16;fontColor=#6666FF;exitX=1;exitY=0.5;exitDx=0;exitDy=0;" edge="1" parent="4G0RWfvHK8gnDnWm_YfS-1" source="Wd-b6KGNQEEcmDvHJwHJ-2" target="Wd-b6KGNQEEcmDvHJwHJ-3">
          <mxGeometry relative="1" as="geometry">
            <Array as="points">
              <mxPoint x="1130" y="500" />
            </Array>
          </mxGeometry>
        </mxCell>
        <mxCell id="Wd-b6KGNQEEcmDvHJwHJ-8" style="edgeStyle=none;rounded=0;orthogonalLoop=1;jettySize=auto;html=1;exitX=0;exitY=0.5;exitDx=0;exitDy=0;strokeWidth=1;fontSize=16;fontColor=#6666FF;entryX=0.486;entryY=-0.008;entryDx=0;entryDy=0;entryPerimeter=0;" edge="1" parent="4G0RWfvHK8gnDnWm_YfS-1" source="Wd-b6KGNQEEcmDvHJwHJ-2" target="Wd-b6KGNQEEcmDvHJwHJ-7">
          <mxGeometry relative="1" as="geometry">
            <mxPoint x="635.0000000000005" y="555" as="targetPoint" />
            <Array as="points">
              <mxPoint x="672" y="500" />
            </Array>
          </mxGeometry>
        </mxCell>
        <mxCell id="Wd-b6KGNQEEcmDvHJwHJ-2" value="&lt;font color=&quot;#330000&quot;&gt;update | mount&lt;/font&gt;" style="rhombus;whiteSpace=wrap;html=1;strokeWidth=1;fontSize=16;fontColor=#6666FF;" vertex="1" parent="4G0RWfvHK8gnDnWm_YfS-1">
          <mxGeometry x="767.5" y="455" width="220" height="90" as="geometry" />
        </mxCell>
        <mxCell id="NEn2SDp1fr3ekX2mxcvR-1" style="edgeStyle=none;rounded=0;orthogonalLoop=1;jettySize=auto;html=1;exitX=0.5;exitY=1;exitDx=0;exitDy=0;entryX=0.5;entryY=0;entryDx=0;entryDy=0;strokeWidth=1;fontSize=16;fontColor=#6666FF;" edge="1" parent="4G0RWfvHK8gnDnWm_YfS-1" source="Wd-b6KGNQEEcmDvHJwHJ-3" target="NEn2SDp1fr3ekX2mxcvR-0">
          <mxGeometry relative="1" as="geometry" />
        </mxCell>
        <mxCell id="Wd-b6KGNQEEcmDvHJwHJ-3" value="&lt;font color=&quot;#330000&quot;&gt;createInstance&lt;/font&gt;" style="rounded=0;whiteSpace=wrap;html=1;strokeWidth=1;fontSize=16;fillColor=#f8cecc;strokeColor=#b85450;" vertex="1" parent="4G0RWfvHK8gnDnWm_YfS-1">
          <mxGeometry x="1070" y="600" width="120" height="60" as="geometry" />
        </mxCell>
        <mxCell id="Wd-b6KGNQEEcmDvHJwHJ-6" value="mount" style="text;html=1;align=center;verticalAlign=middle;resizable=0;points=[];autosize=1;fontSize=16;fontColor=#6666FF;" vertex="1" parent="4G0RWfvHK8gnDnWm_YfS-1">
          <mxGeometry x="1020" y="460" width="60" height="20" as="geometry" />
        </mxCell>
        <mxCell id="NEn2SDp1fr3ekX2mxcvR-17" style="edgeStyle=none;rounded=0;orthogonalLoop=1;jettySize=auto;html=1;entryX=0.25;entryY=0;entryDx=0;entryDy=0;strokeWidth=1;fontSize=16;fontColor=#6666FF;" edge="1" parent="4G0RWfvHK8gnDnWm_YfS-1" source="Wd-b6KGNQEEcmDvHJwHJ-7" target="NEn2SDp1fr3ekX2mxcvR-13">
          <mxGeometry relative="1" as="geometry" />
        </mxCell>
        <mxCell id="Wd-b6KGNQEEcmDvHJwHJ-7" value="&lt;font color=&quot;#330000&quot;&gt;updateHostComponent$1&lt;/font&gt;" style="rounded=0;whiteSpace=wrap;html=1;strokeWidth=1;fontSize=16;fillColor=#f8cecc;strokeColor=#b85450;" vertex="1" parent="4G0RWfvHK8gnDnWm_YfS-1">
          <mxGeometry x="580" y="555" width="190" height="60" as="geometry" />
        </mxCell>
        <mxCell id="Wd-b6KGNQEEcmDvHJwHJ-9" value="update" style="text;html=1;align=center;verticalAlign=middle;resizable=0;points=[];autosize=1;fontSize=16;fontColor=#6666FF;" vertex="1" parent="4G0RWfvHK8gnDnWm_YfS-1">
          <mxGeometry x="660" y="460" width="60" height="20" as="geometry" />
        </mxCell>
        <mxCell id="Wd-b6KGNQEEcmDvHJwHJ-10" value="假设进入了HostComponent" style="text;html=1;align=center;verticalAlign=middle;resizable=0;points=[];autosize=1;fontSize=16;fontColor=#6666FF;" vertex="1" parent="4G0RWfvHK8gnDnWm_YfS-1">
          <mxGeometry x="980" y="360" width="210" height="20" as="geometry" />
        </mxCell>
        <mxCell id="NEn2SDp1fr3ekX2mxcvR-3" style="edgeStyle=none;rounded=0;orthogonalLoop=1;jettySize=auto;html=1;entryX=0.5;entryY=0;entryDx=0;entryDy=0;strokeWidth=1;fontSize=16;fontColor=#6666FF;" edge="1" parent="4G0RWfvHK8gnDnWm_YfS-1" source="NEn2SDp1fr3ekX2mxcvR-0" target="NEn2SDp1fr3ekX2mxcvR-2">
          <mxGeometry relative="1" as="geometry" />
        </mxCell>
        <mxCell id="NEn2SDp1fr3ekX2mxcvR-0" value="&lt;font color=&quot;#330000&quot;&gt;appendAllChildren&lt;/font&gt;" style="rounded=0;whiteSpace=wrap;html=1;strokeWidth=1;fontSize=16;fillColor=#f8cecc;strokeColor=#b85450;" vertex="1" parent="4G0RWfvHK8gnDnWm_YfS-1">
          <mxGeometry x="1060" y="720" width="140" height="60" as="geometry" />
        </mxCell>
        <mxCell id="NEn2SDp1fr3ekX2mxcvR-15" style="edgeStyle=none;rounded=0;orthogonalLoop=1;jettySize=auto;html=1;strokeWidth=1;fontSize=16;fontColor=#6666FF;" edge="1" parent="4G0RWfvHK8gnDnWm_YfS-1" source="NEn2SDp1fr3ekX2mxcvR-2">
          <mxGeometry relative="1" as="geometry">
            <mxPoint x="890" y="945" as="targetPoint" />
            <Array as="points">
              <mxPoint x="1130" y="945" />
            </Array>
          </mxGeometry>
        </mxCell>
        <mxCell id="NEn2SDp1fr3ekX2mxcvR-2" value="&lt;font color=&quot;#330000&quot;&gt;finalizeInitialChildren&lt;/font&gt;" style="rounded=0;whiteSpace=wrap;html=1;strokeWidth=1;fontSize=16;fillColor=#f8cecc;strokeColor=#b85450;" vertex="1" parent="4G0RWfvHK8gnDnWm_YfS-1">
          <mxGeometry x="1055" y="825" width="150" height="60" as="geometry" />
        </mxCell>
        <mxCell id="NEn2SDp1fr3ekX2mxcvR-4" value="clone子节点" style="text;html=1;align=center;verticalAlign=middle;resizable=0;points=[];autosize=1;fontSize=16;fontColor=#6666FF;" vertex="1" parent="4G0RWfvHK8gnDnWm_YfS-1">
          <mxGeometry x="-375" y="840" width="100" height="20" as="geometry" />
        </mxCell>
        <mxCell id="NEn2SDp1fr3ekX2mxcvR-5" value="创建子节点" style="text;html=1;align=center;verticalAlign=middle;resizable=0;points=[];autosize=1;fontSize=16;fontColor=#6666FF;" vertex="1" parent="4G0RWfvHK8gnDnWm_YfS-1">
          <mxGeometry x="360" y="885" width="100" height="20" as="geometry" />
        </mxCell>
        <mxCell id="NEn2SDp1fr3ekX2mxcvR-6" value="带上effectTag" style="text;html=1;align=center;verticalAlign=middle;resizable=0;points=[];autosize=1;fontSize=16;fontColor=#6666FF;" vertex="1" parent="4G0RWfvHK8gnDnWm_YfS-1">
          <mxGeometry x="10" y="650" width="110" height="20" as="geometry" />
        </mxCell>
        <mxCell id="NEn2SDp1fr3ekX2mxcvR-7" value="不带effectTag" style="text;html=1;align=center;verticalAlign=middle;resizable=0;points=[];autosize=1;fontSize=16;fontColor=#6666FF;" vertex="1" parent="4G0RWfvHK8gnDnWm_YfS-1">
          <mxGeometry x="460" y="650" width="110" height="20" as="geometry" />
        </mxCell>
        <mxCell id="NEn2SDp1fr3ekX2mxcvR-9" value="创建dom节点赋值给fiber.stateNode&lt;br&gt;" style="text;html=1;align=center;verticalAlign=middle;resizable=0;points=[];autosize=1;fontSize=16;fontColor=#6666FF;" vertex="1" parent="4G0RWfvHK8gnDnWm_YfS-1">
          <mxGeometry x="1190" y="620" width="270" height="20" as="geometry" />
        </mxCell>
        <mxCell id="NEn2SDp1fr3ekX2mxcvR-10" value="将后代节点插入当前节点" style="text;html=1;align=center;verticalAlign=middle;resizable=0;points=[];autosize=1;fontSize=16;fontColor=#6666FF;" vertex="1" parent="4G0RWfvHK8gnDnWm_YfS-1">
          <mxGeometry x="1200" y="740" width="190" height="20" as="geometry" />
        </mxCell>
        <mxCell id="NEn2SDp1fr3ekX2mxcvR-11" value="初始化dom属性" style="text;html=1;align=center;verticalAlign=middle;resizable=0;points=[];autosize=1;fontSize=16;fontColor=#6666FF;" vertex="1" parent="4G0RWfvHK8gnDnWm_YfS-1">
          <mxGeometry x="1205" y="840" width="130" height="20" as="geometry" />
        </mxCell>
        <mxCell id="NEn2SDp1fr3ekX2mxcvR-12" value="处理props将变化的部分赋值给&lt;br&gt;workInProgerss.updateQueue" style="text;html=1;align=center;verticalAlign=middle;resizable=0;points=[];autosize=1;fontSize=16;fontColor=#6666FF;" vertex="1" parent="4G0RWfvHK8gnDnWm_YfS-1">
          <mxGeometry x="767.5" y="565" width="230" height="40" as="geometry" />
        </mxCell>
        <mxCell id="NEn2SDp1fr3ekX2mxcvR-16" style="edgeStyle=none;rounded=0;orthogonalLoop=1;jettySize=auto;html=1;exitX=0;exitY=0.5;exitDx=0;exitDy=0;strokeWidth=1;fontSize=16;fontColor=#6666FF;" edge="1" parent="4G0RWfvHK8gnDnWm_YfS-1" source="NEn2SDp1fr3ekX2mxcvR-13">
          <mxGeometry relative="1" as="geometry">
            <mxPoint x="770" y="950" as="targetPoint" />
          </mxGeometry>
        </mxCell>
        <mxCell id="6Z2s6MO8VYcqRJL1cK11-1" style="edgeStyle=none;rounded=0;orthogonalLoop=1;jettySize=auto;html=1;entryX=0.5;entryY=0;entryDx=0;entryDy=0;strokeWidth=1;fontSize=16;fontColor=#6666FF;" edge="1" parent="4G0RWfvHK8gnDnWm_YfS-1" source="NEn2SDp1fr3ekX2mxcvR-13" target="6Z2s6MO8VYcqRJL1cK11-0">
          <mxGeometry relative="1" as="geometry" />
        </mxCell>
        <mxCell id="NEn2SDp1fr3ekX2mxcvR-13" value="&lt;font color=&quot;#330000&quot;&gt;把带有effectTag的节点加入到effectList中&lt;br&gt;返回下一个workInPorgress节点&lt;/font&gt;" style="rounded=0;whiteSpace=wrap;html=1;strokeWidth=1;fontSize=16;fontColor=#6666FF;" vertex="1" parent="4G0RWfvHK8gnDnWm_YfS-1">
          <mxGeometry x="600" y="910" width="310" height="70" as="geometry" />
        </mxCell>
        <mxCell id="6Z2s6MO8VYcqRJL1cK11-0" value="&lt;font style=&quot;font-size: 16px&quot;&gt;commitRoot&lt;/font&gt;" style="whiteSpace=wrap;html=1;rounded=0;fillColor=#f5f5f5;strokeColor=#666666;fontColor=#333333;" vertex="1" parent="4G0RWfvHK8gnDnWm_YfS-1">
          <mxGeometry x="695" y="1040" width="120" height="60" as="geometry" />
        </mxCell>
      </root>
    </mxGraphModel>
  </diagram>
  <diagram id="o0daj-Ha9z69BrPNUhXV" name="Page-6">
    <mxGraphModel dx="1407" dy="803" grid="1" gridSize="10" guides="1" tooltips="1" connect="1" arrows="1" fold="1" page="1" pageScale="1" pageWidth="827" pageHeight="1169" math="0" shadow="0">
      <root>
        <mxCell id="sJVbACoSBcybbgDOgq1R-0" />
        <mxCell id="sJVbACoSBcybbgDOgq1R-1" parent="sJVbACoSBcybbgDOgq1R-0" />
        <mxCell id="iGCVJR44xGCEXHaNiM7s-5" style="edgeStyle=none;rounded=0;orthogonalLoop=1;jettySize=auto;html=1;entryX=0.5;entryY=1;entryDx=0;entryDy=0;strokeWidth=1;fontSize=16;fontColor=#6666FF;" edge="1" parent="sJVbACoSBcybbgDOgq1R-1" source="sJVbACoSBcybbgDOgq1R-2" target="sJVbACoSBcybbgDOgq1R-3">
          <mxGeometry relative="1" as="geometry" />
        </mxCell>
        <mxCell id="sJVbACoSBcybbgDOgq1R-2" value="&lt;font color=&quot;#330000&quot;&gt;h1&lt;/font&gt;" style="rounded=0;whiteSpace=wrap;html=1;strokeWidth=1;fillColor=#FFF2CC;fontSize=16;fontColor=#6666FF;" vertex="1" parent="sJVbACoSBcybbgDOgq1R-1">
          <mxGeometry x="290" y="415" width="120" height="60" as="geometry" />
        </mxCell>
        <mxCell id="sJVbACoSBcybbgDOgq1R-10" style="edgeStyle=none;rounded=0;orthogonalLoop=1;jettySize=auto;html=1;strokeWidth=1;fontSize=16;fontColor=#6666FF;entryX=1;entryY=0;entryDx=0;entryDy=0;exitX=1;exitY=1;exitDx=0;exitDy=0;" edge="1" parent="sJVbACoSBcybbgDOgq1R-1" source="sJVbACoSBcybbgDOgq1R-3" target="sJVbACoSBcybbgDOgq1R-2">
          <mxGeometry relative="1" as="geometry" />
        </mxCell>
        <mxCell id="sJVbACoSBcybbgDOgq1R-12" style="edgeStyle=none;rounded=0;orthogonalLoop=1;jettySize=auto;html=1;entryX=0;entryY=0;entryDx=0;entryDy=0;strokeWidth=1;fontSize=16;fontColor=#6666FF;exitX=0;exitY=1;exitDx=0;exitDy=0;" edge="1" parent="sJVbACoSBcybbgDOgq1R-1" source="sJVbACoSBcybbgDOgq1R-3" target="sJVbACoSBcybbgDOgq1R-2">
          <mxGeometry relative="1" as="geometry" />
        </mxCell>
        <mxCell id="sJVbACoSBcybbgDOgq1R-3" value="&lt;font color=&quot;#330000&quot;&gt;p&lt;/font&gt;" style="rounded=0;whiteSpace=wrap;html=1;strokeWidth=1;fillColor=#FFF2CC;fontSize=16;fontColor=#6666FF;" vertex="1" parent="sJVbACoSBcybbgDOgq1R-1">
          <mxGeometry x="290" y="270" width="120" height="60" as="geometry" />
        </mxCell>
        <mxCell id="sJVbACoSBcybbgDOgq1R-16" style="edgeStyle=none;rounded=0;orthogonalLoop=1;jettySize=auto;html=1;entryX=1;entryY=0.5;entryDx=0;entryDy=0;strokeWidth=1;fontSize=16;fontColor=#6666FF;exitX=1;exitY=0.5;exitDx=0;exitDy=0;" edge="1" parent="sJVbACoSBcybbgDOgq1R-1" source="sJVbACoSBcybbgDOgq1R-13" target="sJVbACoSBcybbgDOgq1R-2">
          <mxGeometry relative="1" as="geometry">
            <Array as="points">
              <mxPoint x="500" y="170" />
              <mxPoint x="500" y="445" />
            </Array>
          </mxGeometry>
        </mxCell>
        <mxCell id="sJVbACoSBcybbgDOgq1R-18" style="edgeStyle=none;rounded=0;orthogonalLoop=1;jettySize=auto;html=1;entryX=0;entryY=0.5;entryDx=0;entryDy=0;strokeWidth=1;fontSize=16;fontColor=#6666FF;exitX=0;exitY=0.5;exitDx=0;exitDy=0;" edge="1" parent="sJVbACoSBcybbgDOgq1R-1" source="sJVbACoSBcybbgDOgq1R-13" target="sJVbACoSBcybbgDOgq1R-3">
          <mxGeometry relative="1" as="geometry">
            <Array as="points">
              <mxPoint x="260" y="170" />
              <mxPoint x="260" y="300" />
            </Array>
          </mxGeometry>
        </mxCell>
        <mxCell id="sJVbACoSBcybbgDOgq1R-13" value="&lt;font color=&quot;#330000&quot;&gt;div&lt;/font&gt;" style="rounded=0;whiteSpace=wrap;html=1;strokeWidth=1;fillColor=#FFF2CC;fontSize=16;fontColor=#6666FF;" vertex="1" parent="sJVbACoSBcybbgDOgq1R-1">
          <mxGeometry x="290" y="140" width="120" height="60" as="geometry" />
        </mxCell>
        <mxCell id="sJVbACoSBcybbgDOgq1R-14" value="firstEffect" style="text;html=1;align=center;verticalAlign=middle;resizable=0;points=[];autosize=1;fontSize=16;fontColor=#6666FF;" vertex="1" parent="sJVbACoSBcybbgDOgq1R-1">
          <mxGeometry x="390" y="370" width="80" height="20" as="geometry" />
        </mxCell>
        <mxCell id="sJVbACoSBcybbgDOgq1R-15" value="lastEffect" style="text;html=1;align=center;verticalAlign=middle;resizable=0;points=[];autosize=1;fontSize=16;fontColor=#6666FF;" vertex="1" parent="sJVbACoSBcybbgDOgq1R-1">
          <mxGeometry x="230" y="370" width="80" height="20" as="geometry" />
        </mxCell>
        <mxCell id="sJVbACoSBcybbgDOgq1R-17" value="firstEffect" style="text;html=1;align=center;verticalAlign=middle;resizable=0;points=[];autosize=1;fontSize=16;fontColor=#6666FF;" vertex="1" parent="sJVbACoSBcybbgDOgq1R-1">
          <mxGeometry x="470" y="220" width="80" height="20" as="geometry" />
        </mxCell>
        <mxCell id="iGCVJR44xGCEXHaNiM7s-1" value="&lt;meta charset=&quot;utf-8&quot;&gt;&lt;span style=&quot;color: rgb(102, 102, 255); font-family: helvetica; font-size: 16px; font-style: normal; font-weight: 400; letter-spacing: normal; text-align: center; text-indent: 0px; text-transform: none; word-spacing: 0px; background-color: rgb(248, 249, 250); display: inline; float: none;&quot;&gt;lastEffect&lt;/span&gt;" style="text;whiteSpace=wrap;html=1;fontSize=16;fontColor=#6666FF;" vertex="1" parent="sJVbACoSBcybbgDOgq1R-1">
          <mxGeometry x="230" y="220" width="90" height="30" as="geometry" />
        </mxCell>
        <mxCell id="iGCVJR44xGCEXHaNiM7s-3" value="nextEffect" style="text;html=1;align=center;verticalAlign=middle;resizable=0;points=[];autosize=1;fontSize=16;fontColor=#6666FF;" vertex="1" parent="sJVbACoSBcybbgDOgq1R-1">
          <mxGeometry x="305" y="370" width="90" height="20" as="geometry" />
        </mxCell>
        <mxCell id="iGCVJR44xGCEXHaNiM7s-8" value="" style="text;html=1;align=center;verticalAlign=middle;resizable=0;points=[];autosize=1;fontSize=16;fontColor=#6666FF;" vertex="1" parent="sJVbACoSBcybbgDOgq1R-1">
          <mxGeometry x="600" y="220" width="80" height="20" as="geometry" />
        </mxCell>
        <mxCell id="iGCVJR44xGCEXHaNiM7s-10" value="" style="text;whiteSpace=wrap;html=1;fontSize=16;fontColor=#6666FF;" vertex="1" parent="sJVbACoSBcybbgDOgq1R-1">
          <mxGeometry x="120" y="360" width="90" height="30" as="geometry" />
        </mxCell>
        <mxCell id="PqP5VmDw4bJWFBxpDU48-1" style="edgeStyle=none;rounded=0;orthogonalLoop=1;jettySize=auto;html=1;entryX=0;entryY=0.75;entryDx=0;entryDy=0;strokeWidth=1;fontSize=16;fontColor=#6666FF;" edge="1" parent="sJVbACoSBcybbgDOgq1R-1" source="PqP5VmDw4bJWFBxpDU48-0" target="sJVbACoSBcybbgDOgq1R-3">
          <mxGeometry relative="1" as="geometry">
            <Array as="points">
              <mxPoint x="190" y="70" />
              <mxPoint x="190" y="315" />
            </Array>
          </mxGeometry>
        </mxCell>
        <mxCell id="PqP5VmDw4bJWFBxpDU48-4" style="edgeStyle=none;rounded=0;orthogonalLoop=1;jettySize=auto;html=1;entryX=1;entryY=1;entryDx=0;entryDy=0;strokeWidth=1;fontSize=16;fontColor=#6666FF;" edge="1" parent="sJVbACoSBcybbgDOgq1R-1" source="PqP5VmDw4bJWFBxpDU48-0" target="sJVbACoSBcybbgDOgq1R-2">
          <mxGeometry relative="1" as="geometry">
            <Array as="points">
              <mxPoint x="570" y="70" />
              <mxPoint x="570" y="475" />
            </Array>
          </mxGeometry>
        </mxCell>
        <mxCell id="PqP5VmDw4bJWFBxpDU48-0" value="&lt;font color=&quot;#330000&quot;&gt;app&lt;/font&gt;" style="rounded=0;whiteSpace=wrap;html=1;strokeWidth=1;fillColor=#FFF2CC;fontSize=16;fontColor=#6666FF;" vertex="1" parent="sJVbACoSBcybbgDOgq1R-1">
          <mxGeometry x="290" y="40" width="120" height="60" as="geometry" />
        </mxCell>
        <mxCell id="PqP5VmDw4bJWFBxpDU48-2" value="&lt;meta charset=&quot;utf-8&quot;&gt;&lt;span style=&quot;color: rgb(102, 102, 255); font-family: helvetica; font-size: 16px; font-style: normal; font-weight: 400; letter-spacing: normal; text-align: center; text-indent: 0px; text-transform: none; word-spacing: 0px; background-color: rgb(248, 249, 250); display: inline; float: none;&quot;&gt;lastEffect&lt;/span&gt;" style="text;whiteSpace=wrap;html=1;fontSize=16;fontColor=#6666FF;" vertex="1" parent="sJVbACoSBcybbgDOgq1R-1">
          <mxGeometry x="150" y="170" width="90" height="30" as="geometry" />
        </mxCell>
        <mxCell id="PqP5VmDw4bJWFBxpDU48-5" value="firstEffect" style="text;html=1;align=center;verticalAlign=middle;resizable=0;points=[];autosize=1;fontSize=16;fontColor=#6666FF;" vertex="1" parent="sJVbACoSBcybbgDOgq1R-1">
          <mxGeometry x="520" y="170" width="80" height="20" as="geometry" />
        </mxCell>
      </root>
    </mxGraphModel>
  </diagram>
  <diagram id="cYgWuHkztGAdB3hR1mKt" name="Page-7">
    <mxGraphModel dx="2234" dy="803" grid="1" gridSize="10" guides="1" tooltips="1" connect="1" arrows="1" fold="1" page="1" pageScale="1" pageWidth="827" pageHeight="1169" math="0" shadow="0">
      <root>
        <mxCell id="hrsHgb4FG2tXyJPCmsH_-0" />
        <mxCell id="hrsHgb4FG2tXyJPCmsH_-1" parent="hrsHgb4FG2tXyJPCmsH_-0" />
        <mxCell id="hrsHgb4FG2tXyJPCmsH_-4" value="" style="edgeStyle=none;rounded=0;orthogonalLoop=1;jettySize=auto;html=1;strokeWidth=1;fontSize=16;fontColor=#6666FF;" edge="1" parent="hrsHgb4FG2tXyJPCmsH_-1" source="hrsHgb4FG2tXyJPCmsH_-2" target="hrsHgb4FG2tXyJPCmsH_-3">
          <mxGeometry relative="1" as="geometry" />
        </mxCell>
        <mxCell id="nEFOCJmHMwmuSO57vzkU-3" style="edgeStyle=none;rounded=0;orthogonalLoop=1;jettySize=auto;html=1;entryX=0.75;entryY=1;entryDx=0;entryDy=0;strokeWidth=1;fontSize=16;fontColor=#6666FF;exitX=0.692;exitY=0;exitDx=0;exitDy=0;exitPerimeter=0;" edge="1" parent="hrsHgb4FG2tXyJPCmsH_-1" source="hrsHgb4FG2tXyJPCmsH_-2" target="nEFOCJmHMwmuSO57vzkU-0">
          <mxGeometry relative="1" as="geometry" />
        </mxCell>
        <mxCell id="hrsHgb4FG2tXyJPCmsH_-2" value="app" style="rounded=0;whiteSpace=wrap;html=1;strokeWidth=1;fontSize=16;fillColor=#dae8fc;strokeColor=#6c8ebf;" vertex="1" parent="hrsHgb4FG2tXyJPCmsH_-1">
          <mxGeometry x="220" y="280" width="120" height="60" as="geometry" />
        </mxCell>
        <mxCell id="X9Vu6yTNdMslHoCFUPu7-0" style="edgeStyle=none;rounded=0;orthogonalLoop=1;jettySize=auto;html=1;entryX=0.5;entryY=0;entryDx=0;entryDy=0;strokeWidth=1;fontSize=16;fontColor=#6666FF;" edge="1" parent="hrsHgb4FG2tXyJPCmsH_-1" source="hrsHgb4FG2tXyJPCmsH_-3" target="hrsHgb4FG2tXyJPCmsH_-9">
          <mxGeometry relative="1" as="geometry" />
        </mxCell>
        <mxCell id="X9Vu6yTNdMslHoCFUPu7-5" style="edgeStyle=none;rounded=0;orthogonalLoop=1;jettySize=auto;html=1;entryX=0.75;entryY=1;entryDx=0;entryDy=0;strokeWidth=1;fontSize=16;fontColor=#6666FF;exitX=0.75;exitY=0;exitDx=0;exitDy=0;" edge="1" parent="hrsHgb4FG2tXyJPCmsH_-1" source="hrsHgb4FG2tXyJPCmsH_-3" target="hrsHgb4FG2tXyJPCmsH_-2">
          <mxGeometry relative="1" as="geometry" />
        </mxCell>
        <mxCell id="hrsHgb4FG2tXyJPCmsH_-3" value="div" style="rounded=0;whiteSpace=wrap;html=1;strokeWidth=1;fontSize=16;fillColor=#dae8fc;strokeColor=#6c8ebf;" vertex="1" parent="hrsHgb4FG2tXyJPCmsH_-1">
          <mxGeometry x="220" y="420" width="120" height="60" as="geometry" />
        </mxCell>
        <mxCell id="X9Vu6yTNdMslHoCFUPu7-2" style="edgeStyle=none;rounded=0;orthogonalLoop=1;jettySize=auto;html=1;strokeWidth=1;fontSize=16;fontColor=#6666FF;" edge="1" parent="hrsHgb4FG2tXyJPCmsH_-1" source="hrsHgb4FG2tXyJPCmsH_-9" target="hrsHgb4FG2tXyJPCmsH_-11">
          <mxGeometry relative="1" as="geometry" />
        </mxCell>
        <mxCell id="X9Vu6yTNdMslHoCFUPu7-4" style="edgeStyle=none;rounded=0;orthogonalLoop=1;jettySize=auto;html=1;entryX=0.75;entryY=1;entryDx=0;entryDy=0;strokeWidth=1;fontSize=16;fontColor=#6666FF;exitX=0.75;exitY=0;exitDx=0;exitDy=0;" edge="1" parent="hrsHgb4FG2tXyJPCmsH_-1" source="hrsHgb4FG2tXyJPCmsH_-9" target="hrsHgb4FG2tXyJPCmsH_-3">
          <mxGeometry relative="1" as="geometry" />
        </mxCell>
        <mxCell id="hrsHgb4FG2tXyJPCmsH_-9" value="p" style="rounded=0;whiteSpace=wrap;html=1;strokeWidth=1;fontSize=16;fillColor=#dae8fc;strokeColor=#6c8ebf;" vertex="1" parent="hrsHgb4FG2tXyJPCmsH_-1">
          <mxGeometry x="220" y="550" width="120" height="60" as="geometry" />
        </mxCell>
        <mxCell id="hrsHgb4FG2tXyJPCmsH_-14" value="" style="edgeStyle=none;rounded=0;orthogonalLoop=1;jettySize=auto;html=1;strokeWidth=1;fontSize=16;fontColor=#6666FF;" edge="1" parent="hrsHgb4FG2tXyJPCmsH_-1" source="hrsHgb4FG2tXyJPCmsH_-11" target="hrsHgb4FG2tXyJPCmsH_-13">
          <mxGeometry relative="1" as="geometry" />
        </mxCell>
        <mxCell id="X9Vu6yTNdMslHoCFUPu7-3" style="edgeStyle=none;rounded=0;orthogonalLoop=1;jettySize=auto;html=1;entryX=0.75;entryY=1;entryDx=0;entryDy=0;strokeWidth=1;fontSize=16;fontColor=#6666FF;exitX=0.75;exitY=0;exitDx=0;exitDy=0;" edge="1" parent="hrsHgb4FG2tXyJPCmsH_-1" source="hrsHgb4FG2tXyJPCmsH_-11" target="hrsHgb4FG2tXyJPCmsH_-9">
          <mxGeometry relative="1" as="geometry" />
        </mxCell>
        <mxCell id="nEFOCJmHMwmuSO57vzkU-16" style="edgeStyle=none;curved=1;orthogonalLoop=1;jettySize=auto;html=1;strokeWidth=1;fontSize=16;fontColor=#6666FF;entryX=0;entryY=0.5;entryDx=0;entryDy=0;fillColor=#e1d5e7;strokeColor=#9673a6;" edge="1" parent="hrsHgb4FG2tXyJPCmsH_-1" source="hrsHgb4FG2tXyJPCmsH_-11" target="hrsHgb4FG2tXyJPCmsH_-9">
          <mxGeometry relative="1" as="geometry">
            <mxPoint x="420" y="570" as="targetPoint" />
            <Array as="points">
              <mxPoint x="130" y="660" />
              <mxPoint x="180" y="600" />
            </Array>
          </mxGeometry>
        </mxCell>
        <mxCell id="hrsHgb4FG2tXyJPCmsH_-11" value="h1" style="rounded=0;whiteSpace=wrap;html=1;strokeWidth=1;fontSize=16;fillColor=#f8cecc;strokeColor=#b85450;" vertex="1" parent="hrsHgb4FG2tXyJPCmsH_-1">
          <mxGeometry x="220" y="690" width="120" height="60" as="geometry" />
        </mxCell>
        <mxCell id="X9Vu6yTNdMslHoCFUPu7-1" style="edgeStyle=none;rounded=0;orthogonalLoop=1;jettySize=auto;html=1;entryX=1;entryY=1;entryDx=0;entryDy=0;strokeWidth=1;fontSize=16;fontColor=#6666FF;" edge="1" parent="hrsHgb4FG2tXyJPCmsH_-1" source="hrsHgb4FG2tXyJPCmsH_-13" target="hrsHgb4FG2tXyJPCmsH_-9">
          <mxGeometry relative="1" as="geometry" />
        </mxCell>
        <mxCell id="hrsHgb4FG2tXyJPCmsH_-13" value="&lt;div style=&quot;font-family: &amp;#34;menlo&amp;#34; , &amp;#34;monaco&amp;#34; , &amp;#34;courier new&amp;#34; , monospace ; line-height: 24px&quot;&gt;&lt;span style=&quot;background-color: rgb(218 , 232 , 252)&quot;&gt;&lt;font color=&quot;#330000&quot;&gt;and save to reload&lt;/font&gt;&lt;/span&gt;&lt;/div&gt;" style="rounded=0;whiteSpace=wrap;html=1;strokeWidth=1;fontSize=16;fillColor=#dae8fc;strokeColor=#6c8ebf;" vertex="1" parent="hrsHgb4FG2tXyJPCmsH_-1">
          <mxGeometry x="420" y="690" width="120" height="60" as="geometry" />
        </mxCell>
        <mxCell id="X9Vu6yTNdMslHoCFUPu7-6" value="child" style="text;html=1;align=center;verticalAlign=middle;resizable=0;points=[];autosize=1;fontSize=16;fontColor=#6666FF;" vertex="1" parent="hrsHgb4FG2tXyJPCmsH_-1">
          <mxGeometry x="215" y="360" width="50" height="20" as="geometry" />
        </mxCell>
        <mxCell id="X9Vu6yTNdMslHoCFUPu7-8" value="" style="text;html=1;align=center;verticalAlign=middle;resizable=0;points=[];autosize=1;fontSize=16;fontColor=#6666FF;" vertex="1" parent="hrsHgb4FG2tXyJPCmsH_-1">
          <mxGeometry x="440" y="470" width="50" height="20" as="geometry" />
        </mxCell>
        <mxCell id="X9Vu6yTNdMslHoCFUPu7-9" value="child" style="text;html=1;align=center;verticalAlign=middle;resizable=0;points=[];autosize=1;fontSize=16;fontColor=#6666FF;" vertex="1" parent="hrsHgb4FG2tXyJPCmsH_-1">
          <mxGeometry x="215" y="630" width="50" height="20" as="geometry" />
        </mxCell>
        <mxCell id="X9Vu6yTNdMslHoCFUPu7-10" value="child" style="text;html=1;align=center;verticalAlign=middle;resizable=0;points=[];autosize=1;fontSize=16;fontColor=#6666FF;" vertex="1" parent="hrsHgb4FG2tXyJPCmsH_-1">
          <mxGeometry x="220" y="500" width="50" height="20" as="geometry" />
        </mxCell>
        <mxCell id="X9Vu6yTNdMslHoCFUPu7-11" value="return" style="text;html=1;align=center;verticalAlign=middle;resizable=0;points=[];autosize=1;fontSize=16;fontColor=#6666FF;" vertex="1" parent="hrsHgb4FG2tXyJPCmsH_-1">
          <mxGeometry x="320" y="360" width="60" height="20" as="geometry" />
        </mxCell>
        <mxCell id="X9Vu6yTNdMslHoCFUPu7-12" value="return" style="text;html=1;align=center;verticalAlign=middle;resizable=0;points=[];autosize=1;fontSize=16;fontColor=#6666FF;" vertex="1" parent="hrsHgb4FG2tXyJPCmsH_-1">
          <mxGeometry x="390" y="630" width="60" height="20" as="geometry" />
        </mxCell>
        <mxCell id="X9Vu6yTNdMslHoCFUPu7-13" value="return" style="text;html=1;align=center;verticalAlign=middle;resizable=0;points=[];autosize=1;fontSize=16;fontColor=#6666FF;" vertex="1" parent="hrsHgb4FG2tXyJPCmsH_-1">
          <mxGeometry x="320" y="500" width="60" height="20" as="geometry" />
        </mxCell>
        <mxCell id="X9Vu6yTNdMslHoCFUPu7-15" value="return" style="text;html=1;align=center;verticalAlign=middle;resizable=0;points=[];autosize=1;fontSize=16;fontColor=#6666FF;" vertex="1" parent="hrsHgb4FG2tXyJPCmsH_-1">
          <mxGeometry x="310" y="630" width="60" height="20" as="geometry" />
        </mxCell>
        <mxCell id="X9Vu6yTNdMslHoCFUPu7-16" value="sibling" style="text;html=1;align=center;verticalAlign=middle;resizable=0;points=[];autosize=1;fontSize=16;fontColor=#6666FF;" vertex="1" parent="hrsHgb4FG2tXyJPCmsH_-1">
          <mxGeometry x="353.5" y="690" width="60" height="20" as="geometry" />
        </mxCell>
        <mxCell id="nEFOCJmHMwmuSO57vzkU-2" style="edgeStyle=none;rounded=0;orthogonalLoop=1;jettySize=auto;html=1;entryX=0.45;entryY=0.017;entryDx=0;entryDy=0;entryPerimeter=0;strokeWidth=1;fontSize=16;fontColor=#6666FF;" edge="1" parent="hrsHgb4FG2tXyJPCmsH_-1" source="nEFOCJmHMwmuSO57vzkU-0" target="hrsHgb4FG2tXyJPCmsH_-2">
          <mxGeometry relative="1" as="geometry" />
        </mxCell>
        <mxCell id="nEFOCJmHMwmuSO57vzkU-11" style="edgeStyle=none;rounded=0;orthogonalLoop=1;jettySize=auto;html=1;entryX=0.692;entryY=1.05;entryDx=0;entryDy=0;entryPerimeter=0;strokeWidth=1;fontSize=16;fontColor=#6666FF;exitX=0.692;exitY=0;exitDx=0;exitDy=0;exitPerimeter=0;" edge="1" parent="hrsHgb4FG2tXyJPCmsH_-1" source="nEFOCJmHMwmuSO57vzkU-0" target="nEFOCJmHMwmuSO57vzkU-9">
          <mxGeometry relative="1" as="geometry" />
        </mxCell>
        <mxCell id="nEFOCJmHMwmuSO57vzkU-15" style="edgeStyle=none;curved=1;orthogonalLoop=1;jettySize=auto;html=1;strokeWidth=1;fontSize=16;fontColor=#6666FF;fillColor=#e1d5e7;strokeColor=#9673a6;exitX=-0.008;exitY=0.65;exitDx=0;exitDy=0;exitPerimeter=0;" edge="1" parent="hrsHgb4FG2tXyJPCmsH_-1" source="nEFOCJmHMwmuSO57vzkU-0">
          <mxGeometry relative="1" as="geometry">
            <mxPoint x="215" y="720" as="targetPoint" />
            <Array as="points">
              <mxPoint x="-190" y="630" />
            </Array>
          </mxGeometry>
        </mxCell>
        <mxCell id="nEFOCJmHMwmuSO57vzkU-0" value="rootFiber" style="rounded=0;whiteSpace=wrap;html=1;strokeWidth=1;fontSize=16;fillColor=#f8cecc;strokeColor=#b85450;" vertex="1" parent="hrsHgb4FG2tXyJPCmsH_-1">
          <mxGeometry x="215" y="150" width="120" height="60" as="geometry" />
        </mxCell>
        <mxCell id="nEFOCJmHMwmuSO57vzkU-4" value="child" style="text;html=1;align=center;verticalAlign=middle;resizable=0;points=[];autosize=1;fontSize=16;fontColor=#6666FF;" vertex="1" parent="hrsHgb4FG2tXyJPCmsH_-1">
          <mxGeometry x="220" y="230" width="50" height="20" as="geometry" />
        </mxCell>
        <mxCell id="nEFOCJmHMwmuSO57vzkU-5" value="return" style="text;html=1;align=center;verticalAlign=middle;resizable=0;points=[];autosize=1;fontSize=16;fontColor=#6666FF;" vertex="1" parent="hrsHgb4FG2tXyJPCmsH_-1">
          <mxGeometry x="310" y="230" width="60" height="20" as="geometry" />
        </mxCell>
        <mxCell id="nEFOCJmHMwmuSO57vzkU-10" style="edgeStyle=none;rounded=0;orthogonalLoop=1;jettySize=auto;html=1;entryX=0.5;entryY=0;entryDx=0;entryDy=0;strokeWidth=1;fontSize=16;fontColor=#6666FF;" edge="1" parent="hrsHgb4FG2tXyJPCmsH_-1" source="nEFOCJmHMwmuSO57vzkU-9" target="nEFOCJmHMwmuSO57vzkU-0">
          <mxGeometry relative="1" as="geometry" />
        </mxCell>
        <mxCell id="nEFOCJmHMwmuSO57vzkU-14" style="edgeStyle=none;orthogonalLoop=1;jettySize=auto;html=1;strokeWidth=1;fontSize=16;fontColor=#6666FF;fillColor=#e1d5e7;strokeColor=#9673a6;curved=1;exitX=0;exitY=0.75;exitDx=0;exitDy=0;" edge="1" parent="hrsHgb4FG2tXyJPCmsH_-1" source="nEFOCJmHMwmuSO57vzkU-9">
          <mxGeometry relative="1" as="geometry">
            <mxPoint x="210" y="190" as="targetPoint" />
            <Array as="points">
              <mxPoint x="160" y="70" />
              <mxPoint x="80" y="140" />
            </Array>
          </mxGeometry>
        </mxCell>
        <mxCell id="nEFOCJmHMwmuSO57vzkU-9" value="fiberRoot" style="rounded=0;whiteSpace=wrap;html=1;strokeWidth=1;fontSize=16;strokeColor=#b85450;fillColor=#F8CECC;" vertex="1" parent="hrsHgb4FG2tXyJPCmsH_-1">
          <mxGeometry x="215" y="20" width="120" height="60" as="geometry" />
        </mxCell>
        <mxCell id="nEFOCJmHMwmuSO57vzkU-12" value="current" style="text;html=1;align=center;verticalAlign=middle;resizable=0;points=[];autosize=1;fontSize=16;fontColor=#6666FF;" vertex="1" parent="hrsHgb4FG2tXyJPCmsH_-1">
          <mxGeometry x="205" y="110" width="70" height="20" as="geometry" />
        </mxCell>
        <mxCell id="nEFOCJmHMwmuSO57vzkU-13" value="stateNode" style="text;html=1;align=center;verticalAlign=middle;resizable=0;points=[];autosize=1;fontSize=16;fontColor=#6666FF;" vertex="1" parent="hrsHgb4FG2tXyJPCmsH_-1">
          <mxGeometry x="300" y="110" width="90" height="20" as="geometry" />
        </mxCell>
        <mxCell id="nEFOCJmHMwmuSO57vzkU-18" value="&lt;font color=&quot;#f8cecc&quot;&gt;finishWork&lt;/font&gt;" style="text;html=1;align=center;verticalAlign=middle;resizable=0;points=[];autosize=1;fontSize=16;fontColor=#6666FF;" vertex="1" parent="hrsHgb4FG2tXyJPCmsH_-1">
          <mxGeometry x="20" y="100" width="90" height="20" as="geometry" />
        </mxCell>
        <mxCell id="nEFOCJmHMwmuSO57vzkU-19" value="&lt;font color=&quot;#f8cecc&quot;&gt;firstEffect&lt;/font&gt;" style="text;html=1;align=center;verticalAlign=middle;resizable=0;points=[];autosize=1;fontSize=16;fontColor=#6666FF;" vertex="1" parent="hrsHgb4FG2tXyJPCmsH_-1">
          <mxGeometry x="-50" y="430" width="80" height="20" as="geometry" />
        </mxCell>
        <mxCell id="nEFOCJmHMwmuSO57vzkU-20" value="&lt;font color=&quot;#f8cecc&quot;&gt;nextEffect&lt;/font&gt;" style="text;html=1;align=center;verticalAlign=middle;resizable=0;points=[];autosize=1;fontSize=16;fontColor=#6666FF;" vertex="1" parent="hrsHgb4FG2tXyJPCmsH_-1">
          <mxGeometry x="70" y="610" width="90" height="20" as="geometry" />
        </mxCell>
      </root>
    </mxGraphModel>
  </diagram>
  <diagram id="yh5Dwu2-HLLcEMTs5mgw" name="Page-8">
    <mxGraphModel dx="4345" dy="1933" grid="1" gridSize="10" guides="1" tooltips="1" connect="1" arrows="1" fold="1" page="1" pageScale="1" pageWidth="827" pageHeight="1169" math="0" shadow="0">
      <root>
        <mxCell id="vZ0r9rD9bNNfvOi8Oovl-0" />
        <mxCell id="vZ0r9rD9bNNfvOi8Oovl-1" parent="vZ0r9rD9bNNfvOi8Oovl-0" />
        <mxCell id="bKv3LRcJWXsfJM_3M154-1" value="" style="edgeStyle=none;curved=1;orthogonalLoop=1;jettySize=auto;html=1;strokeWidth=1;fontSize=16;fontColor=#6666FF;" edge="1" parent="vZ0r9rD9bNNfvOi8Oovl-1" source="vZ0r9rD9bNNfvOi8Oovl-2" target="bKv3LRcJWXsfJM_3M154-0">
          <mxGeometry relative="1" as="geometry" />
        </mxCell>
        <mxCell id="vZ0r9rD9bNNfvOi8Oovl-2" value="&lt;pre class=&quot;language-js&quot; style=&quot;background: transparent ; font-family: &amp;#34;consolas&amp;#34; , &amp;#34;monaco&amp;#34; , &amp;#34;andale mono&amp;#34; , &amp;#34;ubuntu mono&amp;#34; , monospace ; text-align: left ; word-break: normal ; overflow-wrap: normal ; line-height: 1.4 ; padding: 1.25rem 1.5rem ; margin-top: 0.85rem ; margin-bottom: 0.85rem ; overflow: auto ; border-radius: 6px ; position: relative ; z-index: 1&quot;&gt;&lt;code style=&quot;padding: 0px ; margin: 0px ; font-size: 0.85em ; background-color: transparent ; border-radius: 0px&quot;&gt;&lt;span class=&quot;token function&quot;&gt;&lt;font color=&quot;#330000&quot;&gt;commitRoot&lt;/font&gt;&lt;/span&gt;&lt;/code&gt;&lt;/pre&gt;" style="rounded=0;whiteSpace=wrap;html=1;strokeWidth=1;fontSize=16;" vertex="1" parent="vZ0r9rD9bNNfvOi8Oovl-1">
          <mxGeometry x="270" y="110" width="120" height="60" as="geometry" />
        </mxCell>
        <mxCell id="bKv3LRcJWXsfJM_3M154-3" value="" style="edgeStyle=none;curved=1;orthogonalLoop=1;jettySize=auto;html=1;strokeWidth=1;fontSize=16;fontColor=#6666FF;" edge="1" parent="vZ0r9rD9bNNfvOi8Oovl-1" source="bKv3LRcJWXsfJM_3M154-0" target="bKv3LRcJWXsfJM_3M154-2">
          <mxGeometry relative="1" as="geometry" />
        </mxCell>
        <mxCell id="bKv3LRcJWXsfJM_3M154-5" value="" style="edgeStyle=none;curved=1;orthogonalLoop=1;jettySize=auto;html=1;strokeWidth=1;fontSize=16;fontColor=#6666FF;" edge="1" parent="vZ0r9rD9bNNfvOi8Oovl-1" source="bKv3LRcJWXsfJM_3M154-0" target="bKv3LRcJWXsfJM_3M154-4">
          <mxGeometry relative="1" as="geometry" />
        </mxCell>
        <mxCell id="bKv3LRcJWXsfJM_3M154-6" style="edgeStyle=none;curved=1;orthogonalLoop=1;jettySize=auto;html=1;strokeWidth=1;fontSize=16;fontColor=#6666FF;" edge="1" parent="vZ0r9rD9bNNfvOi8Oovl-1" source="bKv3LRcJWXsfJM_3M154-0" target="bKv3LRcJWXsfJM_3M154-7">
          <mxGeometry relative="1" as="geometry">
            <mxPoint x="540" y="370" as="targetPoint" />
          </mxGeometry>
        </mxCell>
        <mxCell id="bKv3LRcJWXsfJM_3M154-0" value="&lt;pre class=&quot;language-js&quot; style=&quot;font-family: &amp;#34;consolas&amp;#34; , &amp;#34;monaco&amp;#34; , &amp;#34;andale mono&amp;#34; , &amp;#34;ubuntu mono&amp;#34; , monospace ; text-align: left ; word-break: normal ; overflow-wrap: normal ; line-height: 1.4 ; padding: 1.25rem 1.5rem ; margin-top: 0.85rem ; margin-bottom: 0.85rem ; overflow: auto ; border-radius: 6px ; position: relative ; z-index: 1&quot;&gt;&lt;span style=&quot;color: rgb(71 , 101 , 130) ; font-size: 13.6px ; background-color: rgb(255 , 255 , 255)&quot;&gt;commitRootImpl&lt;/span&gt;&lt;br&gt;&lt;/pre&gt;" style="rounded=0;whiteSpace=wrap;html=1;strokeWidth=1;fontSize=16;" vertex="1" parent="vZ0r9rD9bNNfvOi8Oovl-1">
          <mxGeometry x="270" y="250" width="120" height="60" as="geometry" />
        </mxCell>
        <mxCell id="bKv3LRcJWXsfJM_3M154-2" value="&lt;pre class=&quot;language-js&quot; style=&quot;font-family: &amp;#34;consolas&amp;#34; , &amp;#34;monaco&amp;#34; , &amp;#34;andale mono&amp;#34; , &amp;#34;ubuntu mono&amp;#34; , monospace ; text-align: left ; word-break: normal ; overflow-wrap: normal ; line-height: 1.4 ; padding: 1.25rem 1.5rem ; margin-top: 0.85rem ; margin-bottom: 0.85rem ; overflow: auto ; border-radius: 6px ; position: relative ; z-index: 1&quot;&gt;&lt;pre class=&quot;language-js&quot; style=&quot;background: transparent ; font-family: &amp;#34;consolas&amp;#34; , &amp;#34;monaco&amp;#34; , &amp;#34;andale mono&amp;#34; , &amp;#34;ubuntu mono&amp;#34; , monospace ; word-break: normal ; overflow-wrap: normal ; line-height: 1.4 ; padding: 1.25rem 1.5rem ; margin-top: 0.85rem ; margin-bottom: 0.85rem ; overflow: auto ; border-radius: 6px ; position: relative ; z-index: 1&quot;&gt;&lt;code style=&quot;padding: 0px ; margin: 0px ; font-size: 0.85em ; background-color: transparent ; border-radius: 0px&quot;&gt;&lt;span class=&quot;token function&quot;&gt;&lt;font color=&quot;#330000&quot;&gt;commitBeforeMutationEffects&lt;/font&gt;&lt;/span&gt;&lt;/code&gt;&lt;/pre&gt;&lt;/pre&gt;" style="rounded=0;whiteSpace=wrap;html=1;strokeWidth=1;fontSize=16;" vertex="1" parent="vZ0r9rD9bNNfvOi8Oovl-1">
          <mxGeometry x="-70" y="450" width="230" height="60" as="geometry" />
        </mxCell>
        <mxCell id="bKv3LRcJWXsfJM_3M154-4" value="&lt;pre class=&quot;language-js&quot; style=&quot;font-family: &amp;#34;consolas&amp;#34; , &amp;#34;monaco&amp;#34; , &amp;#34;andale mono&amp;#34; , &amp;#34;ubuntu mono&amp;#34; , monospace ; text-align: left ; word-break: normal ; overflow-wrap: normal ; line-height: 1.4 ; padding: 1.25rem 1.5rem ; margin-top: 0.85rem ; margin-bottom: 0.85rem ; overflow: auto ; border-radius: 6px ; position: relative ; z-index: 1&quot;&gt;&lt;pre class=&quot;language-js&quot; style=&quot;background: transparent ; font-family: &amp;#34;consolas&amp;#34; , &amp;#34;monaco&amp;#34; , &amp;#34;andale mono&amp;#34; , &amp;#34;ubuntu mono&amp;#34; , monospace ; word-break: normal ; overflow-wrap: normal ; line-height: 1.4 ; padding: 1.25rem 1.5rem ; margin-top: 0.85rem ; margin-bottom: 0.85rem ; overflow: auto ; border-radius: 6px ; position: relative ; z-index: 1&quot;&gt;&lt;code style=&quot;font-family: , &amp;#34;menlo&amp;#34; , &amp;#34;monaco&amp;#34; , &amp;#34;consolas&amp;#34; , &amp;#34;courier new&amp;#34; , monospace ; padding: 0px ; margin: 0px ; font-size: 0.85em ; background-color: transparent ; border-radius: 0px&quot;&gt;&lt;span class=&quot;token function&quot;&gt;&lt;font color=&quot;#330000&quot;&gt;commitMutationEffects&lt;/font&gt;&lt;/span&gt;&lt;/code&gt;&lt;/pre&gt;&lt;/pre&gt;" style="rounded=0;whiteSpace=wrap;html=1;strokeWidth=1;fontSize=16;" vertex="1" parent="vZ0r9rD9bNNfvOi8Oovl-1">
          <mxGeometry x="240" y="450" width="180" height="60" as="geometry" />
        </mxCell>
        <mxCell id="bKv3LRcJWXsfJM_3M154-7" value="&lt;pre class=&quot;language-js&quot; style=&quot;font-family: &amp;#34;consolas&amp;#34; , &amp;#34;monaco&amp;#34; , &amp;#34;andale mono&amp;#34; , &amp;#34;ubuntu mono&amp;#34; , monospace ; text-align: left ; word-break: normal ; overflow-wrap: normal ; line-height: 1.4 ; padding: 1.25rem 1.5rem ; margin-top: 0.85rem ; margin-bottom: 0.85rem ; overflow: auto ; border-radius: 6px ; position: relative ; z-index: 1&quot;&gt;&lt;pre class=&quot;language-js&quot; style=&quot;background: transparent ; font-family: &amp;#34;consolas&amp;#34; , &amp;#34;monaco&amp;#34; , &amp;#34;andale mono&amp;#34; , &amp;#34;ubuntu mono&amp;#34; , monospace ; word-break: normal ; overflow-wrap: normal ; line-height: 1.4 ; padding: 1.25rem 1.5rem ; margin-top: 0.85rem ; margin-bottom: 0.85rem ; overflow: auto ; border-radius: 6px ; position: relative ; z-index: 1&quot;&gt;&lt;pre class=&quot;language-js&quot; style=&quot;background: transparent ; font-family: &amp;#34;consolas&amp;#34; , &amp;#34;monaco&amp;#34; , &amp;#34;andale mono&amp;#34; , &amp;#34;ubuntu mono&amp;#34; , monospace ; word-break: normal ; overflow-wrap: normal ; line-height: 1.4 ; padding: 1.25rem 1.5rem ; margin-top: 0.85rem ; margin-bottom: 0.85rem ; overflow: auto ; border-radius: 6px ; position: relative ; z-index: 1&quot;&gt;&lt;code style=&quot;padding: 0px ; margin: 0px ; font-size: 0.85em ; background-color: transparent ; border-radius: 0px&quot;&gt;&lt;span class=&quot;token function&quot;&gt;&lt;font color=&quot;#330000&quot;&gt;commitLayoutEffects&lt;/font&gt;&lt;/span&gt;&lt;/code&gt;&lt;/pre&gt;&lt;/pre&gt;&lt;/pre&gt;" style="rounded=0;whiteSpace=wrap;html=1;strokeWidth=1;fontSize=16;" vertex="1" parent="vZ0r9rD9bNNfvOi8Oovl-1">
          <mxGeometry x="550" y="450" width="180" height="60" as="geometry" />
        </mxCell>
        <mxCell id="bKv3LRcJWXsfJM_3M154-8" value="&lt;br&gt;1.执&lt;span style=&quot;font-size: 13.6px ; text-align: left ; background-color: rgba(27 , 31 , 35 , 0.05)&quot;&gt;getSnapshotBeforeUpdate&lt;br&gt;2调度&lt;/span&gt;&lt;span style=&quot;font-family: , &amp;#34;menlo&amp;#34; , &amp;#34;monaco&amp;#34; , &amp;#34;consolas&amp;#34; , &amp;#34;courier new&amp;#34; , monospace ; font-size: 13.6px ; text-align: left ; background-color: rgba(27 , 31 , 35 , 0.05)&quot;&gt;useEffect&lt;/span&gt;&lt;span style=&quot;font-size: 13.6px ; text-align: left ; background-color: rgba(27 , 31 , 35 , 0.05)&quot;&gt;&lt;br&gt;&lt;/span&gt;" style="text;html=1;strokeColor=none;fillColor=none;align=center;verticalAlign=middle;whiteSpace=wrap;rounded=0;fontSize=16;fontColor=#6666FF;" vertex="1" parent="vZ0r9rD9bNNfvOi8Oovl-1">
          <mxGeometry x="-80" y="510" width="200" height="100" as="geometry" />
        </mxCell>
        <mxCell id="bKv3LRcJWXsfJM_3M154-9" value="1.调用&lt;span style=&quot;font-size: 13.6px ; text-align: left&quot;&gt;commitDetachRef解绑ref&lt;br&gt;2.根据effectTag执行对应的dom操作&lt;br&gt;3.&lt;/span&gt;&lt;span style=&quot;font-family: , &amp;#34;menlo&amp;#34; , &amp;#34;monaco&amp;#34; , &amp;#34;consolas&amp;#34; , &amp;#34;courier new&amp;#34; , monospace ; font-size: 13.6px ; background-color: rgba(27 , 31 , 35 , 0.05)&quot;&gt;&amp;nbsp;useLayoutEffect销毁函数在这里这行&lt;/span&gt;&lt;span style=&quot;font-size: 13.6px ; text-align: left&quot;&gt;&lt;br&gt;&lt;/span&gt;" style="text;html=1;align=center;verticalAlign=middle;resizable=0;points=[];autosize=1;fontSize=16;fontColor=#6666FF;" vertex="1" parent="vZ0r9rD9bNNfvOi8Oovl-1">
          <mxGeometry x="190" y="540" width="250" height="60" as="geometry" />
        </mxCell>
        <mxCell id="bKv3LRcJWXsfJM_3M154-12" value="1.调用&lt;span style=&quot;text-align: left ; background-color: rgb(255 , 255 , 255)&quot;&gt;commitLayoutEffectOnFiber执行相关生命周期函数或者hook相关callback&lt;br&gt;2.&lt;/span&gt;&lt;span style=&quot;font-family: , , &amp;#34;segoe ui&amp;#34; , &amp;#34;roboto&amp;#34; , &amp;#34;oxygen&amp;#34; , &amp;#34;ubuntu&amp;#34; , &amp;#34;cantarell&amp;#34; , &amp;#34;fira sans&amp;#34; , &amp;#34;droid sans&amp;#34; , &amp;#34;helvetica neue&amp;#34; , sans-serif ; text-align: left ; background-color: rgb(255 , 255 , 255)&quot;&gt;&amp;nbsp;执行commitAttachRef为ref赋值&lt;br&gt;&lt;/span&gt;&lt;span style=&quot;text-align: left ; background-color: rgb(255 , 255 , 255)&quot;&gt;3.current Fiber树切换为workInProgress Fiber树&lt;br&gt;&lt;/span&gt;" style="text;html=1;align=center;verticalAlign=middle;resizable=0;points=[];autosize=1;fontSize=16;fontColor=#6666FF;" vertex="1" parent="vZ0r9rD9bNNfvOi8Oovl-1">
          <mxGeometry x="430" y="540" width="580" height="60" as="geometry" />
        </mxCell>
        <mxCell id="bKv3LRcJWXsfJM_3M154-14" value="" style="shape=curlyBracket;whiteSpace=wrap;html=1;rounded=1;strokeWidth=1;fillColor=#F8CECC;fontSize=16;fontColor=#6666FF;size=0;" vertex="1" parent="vZ0r9rD9bNNfvOi8Oovl-1">
          <mxGeometry x="-165" y="450" width="20" height="130" as="geometry" />
        </mxCell>
        <mxCell id="bKv3LRcJWXsfJM_3M154-17" value="mutation阶段" style="text;html=1;align=center;verticalAlign=middle;resizable=0;points=[];autosize=1;fontSize=16;fontColor=#6666FF;" vertex="1" parent="vZ0r9rD9bNNfvOi8Oovl-1">
          <mxGeometry x="-275" y="490" width="110" height="20" as="geometry" />
        </mxCell>
        <mxCell id="bKv3LRcJWXsfJM_3M154-18" value="" style="shape=curlyBracket;whiteSpace=wrap;html=1;rounded=1;strokeWidth=1;fillColor=#F8CECC;fontSize=16;fontColor=#6666FF;size=0;" vertex="1" parent="vZ0r9rD9bNNfvOi8Oovl-1">
          <mxGeometry x="-165" y="310" width="20" height="120" as="geometry" />
        </mxCell>
        <mxCell id="bKv3LRcJWXsfJM_3M154-19" value="" style="shape=curlyBracket;whiteSpace=wrap;html=1;rounded=1;strokeWidth=1;fillColor=#F8CECC;fontSize=16;fontColor=#6666FF;size=0;" vertex="1" parent="vZ0r9rD9bNNfvOi8Oovl-1">
          <mxGeometry x="-165" y="600" width="20" height="120" as="geometry" />
        </mxCell>
        <mxCell id="bKv3LRcJWXsfJM_3M154-21" value="mutation前&lt;br&gt;1.调用&lt;span style=&quot;background-color: transparent ; font-family: , &amp;#34;menlo&amp;#34; , &amp;#34;monaco&amp;#34; , &amp;#34;consolas&amp;#34; , &amp;#34;courier new&amp;#34; , monospace ; font-size: 0.85em ; text-align: left&quot;&gt;flushPassiveEffects&lt;/span&gt;&lt;span&gt;执行完所有effect的任务&lt;/span&gt;&lt;br&gt;2.初始化相关变量&lt;br&gt;3.赋值&lt;span style=&quot;font-family: , &amp;#34;menlo&amp;#34; , &amp;#34;monaco&amp;#34; , &amp;#34;consolas&amp;#34; , &amp;#34;courier new&amp;#34; , monospace ; font-size: 13.6px ; background-color: rgba(27 , 31 , 35 , 0.05)&quot;&gt;firstEffect给后面遍历effectList用&lt;/span&gt;" style="text;html=1;align=center;verticalAlign=middle;resizable=0;points=[];autosize=1;fontSize=16;fontColor=#6666FF;" vertex="1" parent="vZ0r9rD9bNNfvOi8Oovl-1">
          <mxGeometry x="-445" y="320" width="350" height="80" as="geometry" />
        </mxCell>
        <mxCell id="bKv3LRcJWXsfJM_3M154-22" value="mutation后&lt;br&gt;1.根据&lt;span style=&quot;background-color: transparent ; font-family: , &amp;#34;menlo&amp;#34; , &amp;#34;monaco&amp;#34; , &amp;#34;consolas&amp;#34; , &amp;#34;courier new&amp;#34; , monospace ; font-size: 0.85em ; text-align: left&quot;&gt;rootDoesHavePassiveEffects赋值相关变量&lt;/span&gt;&lt;br&gt;2.执行&lt;span style=&quot;background-color: transparent ; font-size: 0.85em ; text-align: left&quot;&gt;flushSyncCallbackQueue处理&lt;/span&gt;&lt;span style=&quot;background-color: transparent ; font-size: 0.85em ; text-align: left&quot;&gt;componentDidMount等生命周期或者&lt;/span&gt;&lt;span style=&quot;background-color: transparent ; font-family: , &amp;#34;menlo&amp;#34; , &amp;#34;monaco&amp;#34; , &amp;#34;consolas&amp;#34; , &amp;#34;courier new&amp;#34; , monospace ; font-size: 0.85em ; text-align: left&quot;&gt;useLayoutEffect等同步任务&lt;/span&gt;" style="text;html=1;align=center;verticalAlign=middle;resizable=0;points=[];autosize=1;fontSize=16;fontColor=#6666FF;" vertex="1" parent="vZ0r9rD9bNNfvOi8Oovl-1">
          <mxGeometry x="-620" y="620" width="630" height="60" as="geometry" />
        </mxCell>
        <mxCell id="SdAyWX5BUxPtNdGotiD9-3" value="" style="edgeStyle=none;curved=1;orthogonalLoop=1;jettySize=auto;html=1;strokeWidth=1;fontSize=16;fontColor=#6666FF;" edge="1" parent="vZ0r9rD9bNNfvOi8Oovl-1" source="SdAyWX5BUxPtNdGotiD9-0" target="SdAyWX5BUxPtNdGotiD9-2">
          <mxGeometry relative="1" as="geometry" />
        </mxCell>
        <mxCell id="SdAyWX5BUxPtNdGotiD9-0" value="&lt;font color=&quot;#330033&quot;&gt;useEffect&lt;/font&gt;" style="rounded=1;whiteSpace=wrap;html=1;strokeWidth=1;fillColor=#F8CECC;fontSize=16;fontColor=#6666FF;" vertex="1" parent="vZ0r9rD9bNNfvOi8Oovl-1">
          <mxGeometry x="-330" y="790" width="120" height="60" as="geometry" />
        </mxCell>
        <mxCell id="SdAyWX5BUxPtNdGotiD9-8" value="" style="edgeStyle=none;curved=1;orthogonalLoop=1;jettySize=auto;html=1;strokeWidth=1;fontSize=16;fontColor=#6666FF;" edge="1" parent="vZ0r9rD9bNNfvOi8Oovl-1" source="SdAyWX5BUxPtNdGotiD9-1" target="SdAyWX5BUxPtNdGotiD9-7">
          <mxGeometry relative="1" as="geometry" />
        </mxCell>
        <mxCell id="SdAyWX5BUxPtNdGotiD9-1" value="&lt;font color=&quot;#330033&quot;&gt;useLayoutEffect&lt;/font&gt;" style="rounded=1;whiteSpace=wrap;html=1;strokeWidth=1;fillColor=#F8CECC;fontSize=16;fontColor=#6666FF;" vertex="1" parent="vZ0r9rD9bNNfvOi8Oovl-1">
          <mxGeometry x="-330" y="880" width="120" height="60" as="geometry" />
        </mxCell>
        <mxCell id="SdAyWX5BUxPtNdGotiD9-5" value="" style="edgeStyle=none;curved=1;orthogonalLoop=1;jettySize=auto;html=1;strokeWidth=1;fontSize=16;fontColor=#6666FF;" edge="1" parent="vZ0r9rD9bNNfvOi8Oovl-1" source="SdAyWX5BUxPtNdGotiD9-2" target="SdAyWX5BUxPtNdGotiD9-4">
          <mxGeometry relative="1" as="geometry" />
        </mxCell>
        <mxCell id="SdAyWX5BUxPtNdGotiD9-2" value="&lt;pre class=&quot;language-js&quot; style=&quot;background: transparent ; text-align: left ; word-break: normal ; overflow-wrap: normal ; line-height: 1.4 ; padding: 1.25rem 1.5rem ; margin-top: 0.85rem ; margin-bottom: 0.85rem ; overflow: auto ; border-radius: 6px ; position: relative ; z-index: 1&quot;&gt;&lt;font color=&quot;#330033&quot;&gt;&lt;span style=&quot;font-size: 13.6px&quot;&gt;调度执行&lt;/span&gt;flushPassiveEffects&lt;/font&gt;&lt;/pre&gt;" style="whiteSpace=wrap;html=1;rounded=1;fontSize=16;fontColor=#6666FF;strokeWidth=1;fillColor=#F8CECC;" vertex="1" parent="vZ0r9rD9bNNfvOi8Oovl-1">
          <mxGeometry x="-80" y="790" width="250" height="65" as="geometry" />
        </mxCell>
        <mxCell id="SdAyWX5BUxPtNdGotiD9-12" value="" style="edgeStyle=none;curved=1;orthogonalLoop=1;jettySize=auto;html=1;strokeWidth=1;fontSize=16;fontColor=#6666FF;" edge="1" parent="vZ0r9rD9bNNfvOi8Oovl-1" source="SdAyWX5BUxPtNdGotiD9-4" target="SdAyWX5BUxPtNdGotiD9-11">
          <mxGeometry relative="1" as="geometry" />
        </mxCell>
        <mxCell id="SdAyWX5BUxPtNdGotiD9-4" value="&lt;pre class=&quot;language-js&quot; style=&quot;background: transparent ; font-family: &amp;#34;consolas&amp;#34; , &amp;#34;monaco&amp;#34; , &amp;#34;andale mono&amp;#34; , &amp;#34;ubuntu mono&amp;#34; , monospace ; text-align: left ; word-break: normal ; overflow-wrap: normal ; line-height: 1.4 ; padding: 1.25rem 1.5rem ; margin-top: 0.85rem ; margin-bottom: 0.85rem ; overflow: auto ; border-radius: 6px ; position: relative ; z-index: 1&quot;&gt;&lt;code style=&quot;padding: 0px ; margin: 0px ; font-size: 0.85em ; background-color: transparent ; border-radius: 0px&quot;&gt;&lt;span class=&quot;token function&quot;&gt;&lt;font color=&quot;#330033&quot;&gt;schedulePassiveEffects&lt;/font&gt;&lt;/span&gt;&lt;/code&gt;&lt;/pre&gt;" style="whiteSpace=wrap;html=1;rounded=1;fontSize=16;fontColor=#6666FF;strokeWidth=1;fillColor=#F8CECC;" vertex="1" parent="vZ0r9rD9bNNfvOi8Oovl-1">
          <mxGeometry x="530" y="790" width="200" height="60" as="geometry" />
        </mxCell>
        <mxCell id="SdAyWX5BUxPtNdGotiD9-10" value="" style="edgeStyle=none;curved=1;orthogonalLoop=1;jettySize=auto;html=1;strokeWidth=1;fontSize=16;fontColor=#6666FF;" edge="1" parent="vZ0r9rD9bNNfvOi8Oovl-1" source="SdAyWX5BUxPtNdGotiD9-7" target="SdAyWX5BUxPtNdGotiD9-9">
          <mxGeometry relative="1" as="geometry" />
        </mxCell>
        <mxCell id="SdAyWX5BUxPtNdGotiD9-7" value="&lt;span style=&quot;font-family: &amp;#34;helvetica&amp;#34; ; font-size: 13.6px ; font-style: normal ; font-weight: 400 ; letter-spacing: normal ; text-align: center ; text-indent: 0px ; text-transform: none ; word-spacing: 0px ; background-color: rgba(27 , 31 , 35 , 0.05) ; display: inline ; float: none&quot;&gt;&lt;font color=&quot;#330033&quot;&gt;useLayoutEffect销毁函数&lt;/font&gt;&lt;/span&gt;" style="whiteSpace=wrap;html=1;rounded=1;fontSize=16;fontColor=#6666FF;strokeWidth=1;fillColor=#F8CECC;" vertex="1" parent="vZ0r9rD9bNNfvOi8Oovl-1">
          <mxGeometry x="260" y="880" width="120" height="60" as="geometry" />
        </mxCell>
        <mxCell id="SdAyWX5BUxPtNdGotiD9-9" value="&lt;span style=&quot;color: rgb(51 , 0 , 51) ; font-family: &amp;#34;helvetica&amp;#34; ; font-size: 13.6px ; background-color: rgba(27 , 31 , 35 , 0.05)&quot;&gt;useLayoutEffect回调函数&lt;/span&gt;" style="whiteSpace=wrap;html=1;rounded=1;fontSize=16;fontColor=#6666FF;strokeWidth=1;fillColor=#F8CECC;" vertex="1" parent="vZ0r9rD9bNNfvOi8Oovl-1">
          <mxGeometry x="560" y="880" width="120" height="60" as="geometry" />
        </mxCell>
        <mxCell id="SdAyWX5BUxPtNdGotiD9-11" value="&lt;font color=&quot;#330033&quot;&gt;&lt;span style=&quot;background-color: transparent ; text-align: left&quot;&gt;flushPassiveEffects执行useEffect的回调和销毁函数&lt;br&gt;&lt;/span&gt;&lt;/font&gt;" style="whiteSpace=wrap;html=1;rounded=1;fontSize=16;fontColor=#6666FF;strokeWidth=1;fillColor=#F8CECC;" vertex="1" parent="vZ0r9rD9bNNfvOi8Oovl-1">
          <mxGeometry x="840" y="790" width="200" height="60" as="geometry" />
        </mxCell>
        <mxCell id="SdAyWX5BUxPtNdGotiD9-15" value="" style="edgeStyle=none;curved=1;orthogonalLoop=1;jettySize=auto;html=1;strokeWidth=1;fontSize=16;fontColor=#6666FF;" edge="1" parent="vZ0r9rD9bNNfvOi8Oovl-1" source="SdAyWX5BUxPtNdGotiD9-13" target="SdAyWX5BUxPtNdGotiD9-14">
          <mxGeometry relative="1" as="geometry" />
        </mxCell>
        <mxCell id="SdAyWX5BUxPtNdGotiD9-13" value="&lt;font color=&quot;#330033&quot;&gt;useRef&lt;/font&gt;" style="rounded=1;whiteSpace=wrap;html=1;strokeWidth=1;fillColor=#F8CECC;fontSize=16;fontColor=#6666FF;" vertex="1" parent="vZ0r9rD9bNNfvOi8Oovl-1">
          <mxGeometry x="-330" y="970" width="120" height="60" as="geometry" />
        </mxCell>
        <mxCell id="SdAyWX5BUxPtNdGotiD9-17" value="" style="edgeStyle=none;curved=1;orthogonalLoop=1;jettySize=auto;html=1;strokeWidth=1;fontSize=16;fontColor=#6666FF;" edge="1" parent="vZ0r9rD9bNNfvOi8Oovl-1" source="SdAyWX5BUxPtNdGotiD9-14" target="SdAyWX5BUxPtNdGotiD9-16">
          <mxGeometry relative="1" as="geometry" />
        </mxCell>
        <mxCell id="SdAyWX5BUxPtNdGotiD9-14" value="&lt;span style=&quot;font-size: 13.6px ; text-align: left&quot;&gt;&lt;font color=&quot;#330033&quot;&gt;commitDetachRef&lt;/font&gt;&lt;/span&gt;" style="whiteSpace=wrap;html=1;rounded=1;fontSize=16;fontColor=#6666FF;strokeWidth=1;fillColor=#F8CECC;" vertex="1" parent="vZ0r9rD9bNNfvOi8Oovl-1">
          <mxGeometry x="260" y="970" width="120" height="60" as="geometry" />
        </mxCell>
        <mxCell id="SdAyWX5BUxPtNdGotiD9-16" value="&lt;span style=&quot;text-align: left ; background-color: rgb(248 , 206 , 204)&quot;&gt;&lt;font color=&quot;#330033&quot;&gt;commitAttachRef&lt;/font&gt;&lt;/span&gt;" style="whiteSpace=wrap;html=1;rounded=1;fontSize=16;fontColor=#6666FF;strokeWidth=1;fillColor=#F8CECC;" vertex="1" parent="vZ0r9rD9bNNfvOi8Oovl-1">
          <mxGeometry x="550" y="970" width="140" height="60" as="geometry" />
        </mxCell>
        <mxCell id="j-ZHUaEwwTwaL0tZIiWA-3" value="" style="whiteSpace=wrap;html=1;dashed=1;sketch=1;strokeWidth=1;fontSize=1;fontColor=#6666FF;fillColor=none;" vertex="1" parent="vZ0r9rD9bNNfvOi8Oovl-1">
          <mxGeometry x="-90" y="390" width="280" height="740" as="geometry" />
        </mxCell>
        <mxCell id="j-ZHUaEwwTwaL0tZIiWA-4" value="" style="whiteSpace=wrap;html=1;dashed=1;sketch=1;strokeWidth=1;fontSize=1;fontColor=#6666FF;fillColor=none;" vertex="1" parent="vZ0r9rD9bNNfvOi8Oovl-1">
          <mxGeometry x="200" y="390" width="280" height="740" as="geometry" />
        </mxCell>
        <mxCell id="j-ZHUaEwwTwaL0tZIiWA-5" value="" style="whiteSpace=wrap;html=1;dashed=1;sketch=1;strokeWidth=1;fontSize=1;fontColor=#6666FF;fillColor=none;" vertex="1" parent="vZ0r9rD9bNNfvOi8Oovl-1">
          <mxGeometry x="500" y="390" width="280" height="740" as="geometry" />
        </mxCell>
      </root>
    </mxGraphModel>
  </diagram>
  <diagram id="S7UAqzJfN4vOggTybcem" name="Page-9">
    <mxGraphModel dx="1407" dy="803" grid="1" gridSize="10" guides="1" tooltips="1" connect="1" arrows="1" fold="1" page="1" pageScale="1" pageWidth="827" pageHeight="1169" math="0" shadow="0">
      <root>
        <mxCell id="KYzXi2BbydwAwPtk-BgX-0" />
        <mxCell id="KYzXi2BbydwAwPtk-BgX-1" parent="KYzXi2BbydwAwPtk-BgX-0" />
      </root>
    </mxGraphModel>
  </diagram>
</mxfile>
